<svg width="1245" height="570" viewBox="0 0 1245 570" fill="none" xmlns="http://www.w3.org/2000/svg">
<rect x="1" y="1" width="1243" height="568" rx="40" fill="black" fill-opacity="0.6" stroke="white" stroke-opacity="0.12" stroke-width="2"/>
<path d="M133.384 115V89.5455H143.898C145.804 89.5455 147.449 89.8893 148.833 90.5771C150.225 91.2565 151.298 92.2343 152.052 93.5103C152.806 94.7781 153.183 96.282 153.183 98.022C153.183 99.7869 152.798 101.287 152.027 102.521C151.256 103.748 150.163 104.684 148.746 105.33C147.329 105.968 145.651 106.287 143.712 106.287H137.062V101.44H142.569C143.497 101.44 144.271 101.32 144.893 101.08C145.522 100.831 145.999 100.458 146.322 99.9609C146.645 99.4555 146.807 98.8092 146.807 98.022C146.807 97.2348 146.645 96.5844 146.322 96.0707C145.999 95.5487 145.522 95.1592 144.893 94.9023C144.263 94.6372 143.488 94.5046 142.569 94.5046H139.536V115H133.384ZM147.714 103.366L154.053 115H147.341L141.127 103.366H147.714ZM161.939 115.323C160.721 115.323 159.64 115.12 158.695 114.714C157.759 114.3 157.017 113.678 156.47 112.85C155.932 112.013 155.662 110.965 155.662 109.705C155.662 108.645 155.849 107.75 156.222 107.021C156.595 106.291 157.108 105.699 157.763 105.243C158.418 104.788 159.172 104.444 160.025 104.212C160.878 103.971 161.79 103.81 162.759 103.727C163.845 103.627 164.719 103.524 165.382 103.416C166.045 103.3 166.525 103.139 166.824 102.931C167.13 102.716 167.284 102.414 167.284 102.024V101.962C167.284 101.324 167.064 100.831 166.625 100.483C166.186 100.135 165.593 99.9609 164.847 99.9609C164.044 99.9609 163.397 100.135 162.909 100.483C162.42 100.831 162.109 101.312 161.976 101.925L156.371 101.726C156.537 100.566 156.963 99.5301 157.651 98.6186C158.347 97.6989 159.3 96.978 160.51 96.456C161.728 95.9257 163.19 95.6605 164.897 95.6605C166.115 95.6605 167.238 95.8055 168.265 96.0955C169.293 96.3772 170.188 96.7915 170.95 97.3384C171.712 97.877 172.301 98.5399 172.715 99.3271C173.138 100.114 173.349 101.013 173.349 102.024V115H167.632V112.34H167.482C167.143 112.987 166.708 113.533 166.177 113.981C165.655 114.428 165.038 114.764 164.325 114.988C163.621 115.211 162.826 115.323 161.939 115.323ZM163.816 111.346C164.47 111.346 165.059 111.213 165.581 110.948C166.111 110.683 166.534 110.318 166.849 109.854C167.163 109.382 167.321 108.835 167.321 108.214V106.399C167.147 106.49 166.936 106.573 166.687 106.648C166.447 106.722 166.182 106.793 165.892 106.859C165.602 106.925 165.303 106.983 164.997 107.033C164.69 107.083 164.396 107.128 164.114 107.17C163.542 107.261 163.054 107.402 162.648 107.592C162.25 107.783 161.943 108.031 161.728 108.338C161.521 108.636 161.417 108.993 161.417 109.407C161.417 110.037 161.641 110.517 162.088 110.849C162.544 111.18 163.12 111.346 163.816 111.346ZM177.065 115V95.9091H182.969V99.3892H183.168C183.516 98.1297 184.083 97.1934 184.871 96.5803C185.658 95.9588 186.573 95.6481 187.617 95.6481C187.899 95.6481 188.189 95.6688 188.487 95.7102C188.786 95.7434 189.063 95.7972 189.32 95.8718V101.154C189.03 101.055 188.649 100.976 188.177 100.918C187.713 100.86 187.298 100.831 186.934 100.831C186.213 100.831 185.562 100.993 184.982 101.316C184.411 101.631 183.959 102.074 183.628 102.646C183.305 103.209 183.143 103.872 183.143 104.634V115H177.065ZM191.797 115V95.9091H197.874V115H191.797ZM194.842 93.6843C193.988 93.6843 193.255 93.4026 192.642 92.8391C192.029 92.2674 191.722 91.5797 191.722 90.7759C191.722 89.9805 192.029 89.301 192.642 88.7376C193.255 88.1658 193.988 87.88 194.842 87.88C195.703 87.88 196.437 88.1658 197.042 88.7376C197.655 89.301 197.961 89.9805 197.961 90.7759C197.961 91.5797 197.655 92.2674 197.042 92.8391C196.437 93.4026 195.703 93.6843 194.842 93.6843ZM212.519 95.9091V100.384H200.475V95.9091H212.519ZM202.998 91.3352H209.076V108.997C209.076 109.37 209.134 109.672 209.25 109.904C209.374 110.128 209.552 110.289 209.784 110.389C210.016 110.48 210.294 110.526 210.617 110.526C210.849 110.526 211.094 110.505 211.35 110.463C211.616 110.414 211.815 110.372 211.947 110.339L212.867 114.727C212.577 114.809 212.167 114.913 211.636 115.037C211.114 115.162 210.489 115.24 209.76 115.273C208.334 115.34 207.112 115.174 206.093 114.776C205.082 114.37 204.307 113.741 203.769 112.887C203.239 112.034 202.982 110.961 202.998 109.668V91.3352ZM219.336 122.159C218.607 122.159 217.919 122.101 217.273 121.985C216.627 121.877 216.071 121.732 215.607 121.55L216.95 117.138C217.546 117.337 218.085 117.453 218.566 117.486C219.054 117.519 219.473 117.44 219.821 117.25C220.177 117.067 220.451 116.74 220.641 116.268L220.877 115.696L214.091 95.9091H220.455L223.972 109.531H224.171L227.738 95.9091H234.139L226.943 116.827C226.595 117.871 226.102 118.791 225.464 119.586C224.834 120.39 224.018 121.02 223.015 121.475C222.021 121.931 220.794 122.159 219.336 122.159Z" fill="white"/>
<path d="M434.21 98.7678H427.996C427.913 98.1297 427.743 97.5539 427.486 97.0401C427.229 96.5264 426.89 96.0872 426.467 95.7227C426.044 95.3581 425.543 95.0805 424.963 94.8899C424.391 94.6911 423.757 94.5916 423.061 94.5916C421.827 94.5916 420.762 94.8941 419.867 95.4989C418.981 96.1038 418.297 96.978 417.816 98.1214C417.344 99.2649 417.108 100.649 417.108 102.273C417.108 103.963 417.348 105.38 417.829 106.523C418.318 107.659 419.001 108.516 419.88 109.096C420.766 109.668 421.814 109.954 423.024 109.954C423.704 109.954 424.321 109.867 424.876 109.693C425.439 109.519 425.932 109.266 426.355 108.935C426.786 108.595 427.138 108.185 427.412 107.704C427.693 107.215 427.888 106.664 427.996 106.051L434.21 106.088C434.102 107.215 433.775 108.326 433.228 109.419C432.69 110.513 431.948 111.512 431.004 112.415C430.059 113.31 428.907 114.022 427.548 114.553C426.198 115.083 424.648 115.348 422.9 115.348C420.596 115.348 418.533 114.843 416.71 113.832C414.896 112.812 413.462 111.329 412.41 109.382C411.357 107.435 410.831 105.065 410.831 102.273C410.831 99.4721 411.366 97.0981 412.435 95.1509C413.504 93.2037 414.949 91.7247 416.772 90.7138C418.595 89.7029 420.638 89.1974 422.9 89.1974C424.441 89.1974 425.866 89.4129 427.175 89.8438C428.485 90.2663 429.636 90.8878 430.631 91.7081C431.625 92.5201 432.433 93.5186 433.054 94.7035C433.676 95.8884 434.061 97.2431 434.21 98.7678ZM446.642 115.36C444.637 115.36 442.914 114.95 441.472 114.13C440.038 113.301 438.932 112.15 438.153 110.675C437.383 109.192 436.997 107.472 436.997 105.517C436.997 103.553 437.383 101.834 438.153 100.359C438.932 98.8755 440.038 97.7237 441.472 96.9034C442.914 96.0748 444.637 95.6605 446.642 95.6605C448.647 95.6605 450.367 96.0748 451.8 96.9034C453.242 97.7237 454.348 98.8755 455.119 100.359C455.898 101.834 456.287 103.553 456.287 105.517C456.287 107.472 455.898 109.192 455.119 110.675C454.348 112.15 453.242 113.301 451.8 114.13C450.367 114.95 448.647 115.36 446.642 115.36ZM446.68 110.774C447.409 110.774 448.026 110.55 448.531 110.103C449.037 109.656 449.422 109.034 449.687 108.239C449.961 107.443 450.098 106.523 450.098 105.479C450.098 104.419 449.961 103.491 449.687 102.695C449.422 101.9 449.037 101.278 448.531 100.831C448.026 100.384 447.409 100.16 446.68 100.16C445.926 100.16 445.288 100.384 444.765 100.831C444.252 101.278 443.858 101.9 443.585 102.695C443.32 103.491 443.187 104.419 443.187 105.479C443.187 106.523 443.32 107.443 443.585 108.239C443.858 109.034 444.252 109.656 444.765 110.103C445.288 110.55 445.926 110.774 446.68 110.774ZM465.478 89.5455V115H459.401V89.5455H465.478ZM478.258 115.36C476.253 115.36 474.53 114.95 473.088 114.13C471.655 113.301 470.548 112.15 469.769 110.675C468.999 109.192 468.614 107.472 468.614 105.517C468.614 103.553 468.999 101.834 469.769 100.359C470.548 98.8755 471.655 97.7237 473.088 96.9034C474.53 96.0748 476.253 95.6605 478.258 95.6605C480.264 95.6605 481.983 96.0748 483.417 96.9034C484.858 97.7237 485.964 98.8755 486.735 100.359C487.514 101.834 487.903 103.553 487.903 105.517C487.903 107.472 487.514 109.192 486.735 110.675C485.964 112.15 484.858 113.301 483.417 114.13C481.983 114.95 480.264 115.36 478.258 115.36ZM478.296 110.774C479.025 110.774 479.642 110.55 480.148 110.103C480.653 109.656 481.038 109.034 481.304 108.239C481.577 107.443 481.714 106.523 481.714 105.479C481.714 104.419 481.577 103.491 481.304 102.695C481.038 101.9 480.653 101.278 480.148 100.831C479.642 100.384 479.025 100.16 478.296 100.16C477.542 100.16 476.904 100.384 476.382 100.831C475.868 101.278 475.474 101.9 475.201 102.695C474.936 103.491 474.803 104.419 474.803 105.479C474.803 106.523 474.936 107.443 475.201 108.239C475.474 109.034 475.868 109.656 476.382 110.103C476.904 110.55 477.542 110.774 478.296 110.774ZM491.017 115V95.9091H496.921V99.3892H497.119C497.467 98.1297 498.035 97.1934 498.822 96.5803C499.609 95.9588 500.525 95.6481 501.569 95.6481C501.851 95.6481 502.141 95.6688 502.439 95.7102C502.737 95.7434 503.015 95.7972 503.272 95.8718V101.154C502.982 101.055 502.601 100.976 502.128 100.918C501.664 100.86 501.25 100.831 500.885 100.831C500.165 100.831 499.514 100.993 498.934 101.316C498.362 101.631 497.911 102.074 497.579 102.646C497.256 103.209 497.095 103.872 497.095 104.634V115H491.017Z" fill="white"/>
<path d="M718.825 89.5455V115H713.604L703.475 100.309H703.313V115H697.161V89.5455H702.456L712.473 104.212H712.685V89.5455H718.825ZM728.075 115.323C726.857 115.323 725.775 115.12 724.831 114.714C723.895 114.3 723.153 113.678 722.606 112.85C722.068 112.013 721.798 110.965 721.798 109.705C721.798 108.645 721.985 107.75 722.358 107.021C722.73 106.291 723.244 105.699 723.899 105.243C724.553 104.788 725.307 104.444 726.161 104.212C727.014 103.971 727.926 103.81 728.895 103.727C729.981 103.627 730.855 103.524 731.518 103.416C732.181 103.3 732.661 103.139 732.959 102.931C733.266 102.716 733.419 102.414 733.419 102.024V101.962C733.419 101.324 733.2 100.831 732.761 100.483C732.321 100.135 731.729 99.9609 730.983 99.9609C730.179 99.9609 729.533 100.135 729.044 100.483C728.555 100.831 728.245 101.312 728.112 101.925L722.507 101.726C722.672 100.566 723.099 99.5301 723.787 98.6186C724.483 97.6989 725.436 96.978 726.646 96.456C727.864 95.9257 729.326 95.6605 731.033 95.6605C732.251 95.6605 733.374 95.8055 734.401 96.0955C735.429 96.3772 736.324 96.7915 737.086 97.3384C737.848 97.877 738.436 98.5399 738.851 99.3271C739.273 100.114 739.485 101.013 739.485 102.024V115H733.767V112.34H733.618C733.278 112.987 732.843 113.533 732.313 113.981C731.791 114.428 731.174 114.764 730.461 114.988C729.757 115.211 728.961 115.323 728.075 115.323ZM729.952 111.346C730.606 111.346 731.195 111.213 731.717 110.948C732.247 110.683 732.669 110.318 732.984 109.854C733.299 109.382 733.457 108.835 733.457 108.214V106.399C733.283 106.49 733.071 106.573 732.823 106.648C732.582 106.722 732.317 106.793 732.027 106.859C731.737 106.925 731.439 106.983 731.132 107.033C730.826 107.083 730.532 107.128 730.25 107.17C729.678 107.261 729.189 107.402 728.783 107.592C728.386 107.783 728.079 108.031 727.864 108.338C727.656 108.636 727.553 108.993 727.553 109.407C727.553 110.037 727.777 110.517 728.224 110.849C728.68 111.18 729.256 111.346 729.952 111.346ZM743.201 115V95.9091H748.98V99.4141H749.192C749.589 98.254 750.261 97.3384 751.205 96.6673C752.15 95.9961 753.277 95.6605 754.586 95.6605C755.912 95.6605 757.047 96.0002 757.991 96.6797C758.936 97.3591 759.537 98.2706 759.794 99.4141H759.992C760.349 98.2789 761.045 97.3716 762.081 96.6921C763.116 96.0044 764.338 95.6605 765.747 95.6605C767.553 95.6605 769.02 96.2405 770.147 97.4006C771.274 98.5523 771.837 100.135 771.837 102.148V115H765.759V103.54C765.759 102.588 765.515 101.863 765.026 101.365C764.537 100.86 763.903 100.607 763.125 100.607C762.288 100.607 761.629 100.881 761.148 101.428C760.676 101.966 760.44 102.691 760.44 103.603V115H754.598V103.478C754.598 102.592 754.358 101.892 753.877 101.378C753.397 100.864 752.763 100.607 751.976 100.607C751.445 100.607 750.977 100.736 750.571 100.993C750.165 101.241 749.846 101.597 749.614 102.061C749.391 102.525 749.279 103.072 749.279 103.702V115H743.201ZM784.527 115.36C782.53 115.36 780.807 114.967 779.357 114.18C777.915 113.384 776.805 112.253 776.026 110.787C775.255 109.312 774.87 107.559 774.87 105.529C774.87 103.557 775.259 101.834 776.038 100.359C776.817 98.8755 777.915 97.7237 779.332 96.9034C780.749 96.0748 782.418 95.6605 784.341 95.6605C785.7 95.6605 786.943 95.8718 788.07 96.2944C789.196 96.717 790.17 97.3426 790.99 98.1712C791.811 98.9998 792.449 100.023 792.904 101.241C793.36 102.451 793.588 103.839 793.588 105.405V106.921H776.995V103.391H787.933C787.925 102.745 787.771 102.169 787.473 101.664C787.175 101.158 786.764 100.765 786.242 100.483C785.729 100.193 785.136 100.048 784.465 100.048C783.786 100.048 783.177 100.201 782.638 100.508C782.099 100.806 781.673 101.216 781.358 101.738C781.043 102.252 780.877 102.836 780.861 103.491V107.083C780.861 107.862 781.014 108.545 781.321 109.134C781.627 109.714 782.062 110.165 782.626 110.488C783.189 110.811 783.86 110.973 784.639 110.973C785.178 110.973 785.667 110.898 786.106 110.749C786.545 110.6 786.922 110.381 787.237 110.091C787.552 109.801 787.788 109.444 787.945 109.022L793.526 109.183C793.294 110.434 792.784 111.524 791.997 112.452C791.218 113.372 790.195 114.089 788.927 114.602C787.659 115.108 786.193 115.36 784.527 115.36Z" fill="white"/>
<path d="M1008.72 97.1768C1008.64 96.2654 1008.27 95.5569 1007.62 95.0515C1006.97 94.5378 1006.05 94.2809 1004.84 94.2809C1004.05 94.2809 1003.39 94.3845 1002.86 94.5916C1002.32 94.7988 1001.93 95.0846 1001.66 95.4492C1001.4 95.8055 1001.26 96.2157 1001.25 96.6797C1001.24 97.0608 1001.31 97.3964 1001.48 97.6864C1001.65 97.9764 1001.9 98.2333 1002.22 98.457C1002.55 98.6725 1002.95 98.863 1003.41 99.0288C1003.88 99.1945 1004.4 99.3395 1004.98 99.4638L1007.17 99.9609C1008.43 100.234 1009.54 100.599 1010.5 101.055C1011.47 101.51 1012.28 102.053 1012.93 102.683C1013.6 103.313 1014.1 104.038 1014.44 104.858C1014.78 105.678 1014.95 106.598 1014.96 107.617C1014.95 109.225 1014.55 110.604 1013.74 111.756C1012.94 112.908 1011.78 113.79 1010.28 114.403C1008.78 115.017 1006.96 115.323 1004.84 115.323C1002.71 115.323 1000.86 115.004 999.275 114.366C997.693 113.728 996.462 112.759 995.584 111.458C994.706 110.157 994.254 108.512 994.229 106.523H1000.12C1000.17 107.344 1000.39 108.027 1000.78 108.574C1001.17 109.121 1001.7 109.535 1002.38 109.817C1003.07 110.099 1003.87 110.24 1004.77 110.24C1005.6 110.24 1006.3 110.128 1006.88 109.904C1007.47 109.68 1007.92 109.37 1008.24 108.972C1008.55 108.574 1008.71 108.118 1008.72 107.605C1008.71 107.124 1008.56 106.714 1008.27 106.374C1007.98 106.026 1007.54 105.728 1006.93 105.479C1006.34 105.223 1005.57 104.986 1004.64 104.771L1001.98 104.15C999.781 103.644 998.045 102.828 996.777 101.701C995.509 100.566 994.88 99.0329 994.888 97.1023C994.88 95.5279 995.302 94.1483 996.156 92.9634C997.009 91.7785 998.19 90.8546 999.698 90.1918C1001.21 89.5289 1002.93 89.1974 1004.86 89.1974C1006.83 89.1974 1008.54 89.533 1009.99 90.2042C1011.45 90.8671 1012.58 91.7992 1013.38 93.0007C1014.19 94.2022 1014.6 95.5942 1014.61 97.1768H1008.72ZM1030.39 106.76V95.9091H1036.45V115H1030.66V111.445H1030.46C1030.04 112.614 1029.32 113.542 1028.3 114.229C1027.29 114.909 1026.06 115.249 1024.63 115.249C1023.33 115.249 1022.19 114.95 1021.2 114.354C1020.21 113.757 1019.45 112.924 1018.9 111.855C1018.35 110.778 1018.08 109.519 1018.07 108.077V95.9091H1024.15V106.884C1024.15 107.92 1024.43 108.736 1024.97 109.332C1025.5 109.929 1026.24 110.227 1027.17 110.227C1027.77 110.227 1028.31 110.095 1028.79 109.83C1029.28 109.556 1029.67 109.163 1029.95 108.649C1030.24 108.127 1030.39 107.497 1030.39 106.76ZM1040.32 122.159V95.9091H1046.33V99.1779H1046.52C1046.77 98.5979 1047.12 98.0386 1047.58 97.5C1048.04 96.9614 1048.63 96.5223 1049.34 96.1825C1050.06 95.8345 1050.93 95.6605 1051.93 95.6605C1053.25 95.6605 1054.49 96.0085 1055.64 96.7045C1056.8 97.4006 1057.74 98.4736 1058.45 99.9237C1059.17 101.374 1059.52 103.221 1059.52 105.467C1059.52 107.63 1059.18 109.44 1058.49 110.898C1057.81 112.357 1056.89 113.451 1055.73 114.18C1054.58 114.909 1053.3 115.273 1051.89 115.273C1050.93 115.273 1050.1 115.116 1049.39 114.801C1048.69 114.486 1048.1 114.072 1047.61 113.558C1047.14 113.045 1046.78 112.493 1046.52 111.905H1046.4V122.159H1040.32ZM1046.27 105.455C1046.27 106.482 1046.41 107.377 1046.68 108.139C1046.96 108.902 1047.37 109.494 1047.89 109.917C1048.42 110.331 1049.05 110.538 1049.79 110.538C1050.54 110.538 1051.17 110.331 1051.69 109.917C1052.21 109.494 1052.61 108.902 1052.87 108.139C1053.15 107.377 1053.28 106.482 1053.28 105.455C1053.28 104.427 1053.15 103.536 1052.87 102.782C1052.61 102.028 1052.21 101.444 1051.69 101.03C1051.18 100.616 1050.54 100.408 1049.79 100.408C1049.04 100.408 1048.41 100.611 1047.89 101.017C1047.37 101.423 1046.96 102.003 1046.68 102.757C1046.41 103.511 1046.27 104.411 1046.27 105.455ZM1062.71 122.159V95.9091H1068.72V99.1779H1068.91C1069.16 98.5979 1069.51 98.0386 1069.97 97.5C1070.43 96.9614 1071.02 96.5223 1071.73 96.1825C1072.45 95.8345 1073.31 95.6605 1074.32 95.6605C1075.64 95.6605 1076.88 96.0085 1078.03 96.7045C1079.19 97.4006 1080.13 98.4736 1080.84 99.9237C1081.55 101.374 1081.91 103.221 1081.91 105.467C1081.91 107.63 1081.57 109.44 1080.88 110.898C1080.2 112.357 1079.28 113.451 1078.12 114.18C1076.97 114.909 1075.69 115.273 1074.28 115.273C1073.32 115.273 1072.48 115.116 1071.78 114.801C1071.08 114.486 1070.48 114.072 1070 113.558C1069.53 113.045 1069.17 112.493 1068.91 111.905H1068.78V122.159H1062.71ZM1068.66 105.455C1068.66 106.482 1068.8 107.377 1069.07 108.139C1069.35 108.902 1069.75 109.494 1070.28 109.917C1070.81 110.331 1071.44 110.538 1072.18 110.538C1072.92 110.538 1073.56 110.331 1074.08 109.917C1074.6 109.494 1074.99 108.902 1075.26 108.139C1075.53 107.377 1075.67 106.482 1075.67 105.455C1075.67 104.427 1075.53 103.536 1075.26 102.782C1074.99 102.028 1074.6 101.444 1074.08 101.03C1073.57 100.616 1072.93 100.408 1072.18 100.408C1071.43 100.408 1070.8 100.611 1070.28 101.017C1069.75 101.423 1069.35 102.003 1069.07 102.757C1068.8 103.511 1068.66 104.411 1068.66 105.455ZM1091.17 89.5455V115H1085.09V89.5455H1091.17ZM1098.76 122.159C1098.03 122.159 1097.34 122.101 1096.69 121.985C1096.05 121.877 1095.49 121.732 1095.03 121.55L1096.37 117.138C1096.97 117.337 1097.51 117.453 1097.99 117.486C1098.48 117.519 1098.89 117.44 1099.24 117.25C1099.6 117.067 1099.87 116.74 1100.06 116.268L1100.3 115.696L1093.51 95.9091H1099.88L1103.39 109.531H1103.59L1107.16 95.9091H1113.56L1106.36 116.827C1106.02 117.871 1105.52 118.791 1104.88 119.586C1104.25 120.39 1103.44 121.02 1102.44 121.475C1101.44 121.931 1100.22 122.159 1098.76 122.159Z" fill="white"/>
<path opacity="0.4" d="M135.748 211V189.182H144.761C146.394 189.182 147.804 189.477 148.99 190.066C150.183 190.648 151.103 191.487 151.749 192.58C152.396 193.667 152.719 194.956 152.719 196.447C152.719 197.96 152.389 199.246 151.728 200.304C151.068 201.355 150.13 202.158 148.916 202.712C147.701 203.259 146.263 203.532 144.601 203.532H138.901V199.377H143.621C144.416 199.377 145.08 199.274 145.613 199.068C146.153 198.855 146.561 198.536 146.838 198.109C147.115 197.676 147.254 197.122 147.254 196.447C147.254 195.773 147.115 195.215 146.838 194.775C146.561 194.327 146.153 193.994 145.613 193.773C145.073 193.546 144.409 193.433 143.621 193.433H141.021V211H135.748ZM148.031 201.028L153.465 211H147.712L142.385 201.028H148.031ZM162.938 211.309C161.226 211.309 159.749 210.972 158.506 210.297C157.271 209.615 156.319 208.646 155.651 207.388C154.991 206.124 154.66 204.622 154.66 202.882C154.66 201.192 154.994 199.714 155.662 198.45C156.329 197.179 157.271 196.192 158.485 195.489C159.699 194.778 161.131 194.423 162.778 194.423C163.943 194.423 165.008 194.604 165.974 194.967C166.94 195.329 167.775 195.865 168.478 196.575C169.181 197.286 169.728 198.163 170.119 199.207C170.509 200.244 170.704 201.433 170.704 202.776V204.075H156.482V201.05H165.857C165.85 200.496 165.719 200.002 165.463 199.569C165.207 199.136 164.856 198.798 164.408 198.557C163.968 198.308 163.46 198.184 162.885 198.184C162.302 198.184 161.78 198.315 161.319 198.578C160.857 198.834 160.491 199.185 160.222 199.633C159.952 200.073 159.81 200.574 159.795 201.135V204.214C159.795 204.881 159.927 205.467 160.19 205.972C160.452 206.469 160.825 206.856 161.308 207.133C161.791 207.41 162.366 207.548 163.034 207.548C163.496 207.548 163.915 207.484 164.291 207.357C164.668 207.229 164.991 207.04 165.261 206.792C165.53 206.543 165.733 206.238 165.868 205.876L170.651 206.014C170.452 207.087 170.016 208.021 169.341 208.816C168.673 209.604 167.796 210.219 166.709 210.659C165.623 211.092 164.366 211.309 162.938 211.309ZM179.342 211.234C178.134 211.234 177.037 210.922 176.05 210.297C175.063 209.672 174.274 208.734 173.685 207.484C173.095 206.234 172.801 204.683 172.801 202.829C172.801 200.904 173.106 199.32 173.717 198.077C174.328 196.835 175.127 195.915 176.114 195.318C177.108 194.722 178.177 194.423 179.32 194.423C180.18 194.423 180.915 194.572 181.526 194.871C182.136 195.162 182.641 195.538 183.038 196C183.436 196.462 183.738 196.941 183.944 197.438H184.051V189.182H189.26V211H184.104V208.347H183.944C183.724 208.852 183.411 209.324 183.006 209.764C182.602 210.205 182.094 210.56 181.483 210.83C180.879 211.099 180.166 211.234 179.342 211.234ZM181.153 207.175C181.785 207.175 182.325 206.998 182.772 206.643C183.22 206.281 183.564 205.773 183.805 205.119C184.047 204.466 184.168 203.699 184.168 202.818C184.168 201.923 184.047 201.153 183.805 200.506C183.571 199.86 183.227 199.363 182.772 199.015C182.325 198.667 181.785 198.493 181.153 198.493C180.506 198.493 179.96 198.67 179.512 199.026C179.065 199.381 178.724 199.881 178.489 200.528C178.262 201.174 178.149 201.937 178.149 202.818C178.149 203.699 178.266 204.466 178.5 205.119C178.734 205.773 179.072 206.281 179.512 206.643C179.96 206.998 180.506 207.175 181.153 207.175Z" fill="white"/>
<path opacity="0.6" d="M700.69 197.087H695.364C695.293 196.54 695.147 196.046 694.927 195.606C694.707 195.165 694.415 194.789 694.053 194.477C693.691 194.164 693.261 193.926 692.764 193.763C692.274 193.592 691.731 193.507 691.134 193.507C690.076 193.507 689.163 193.766 688.396 194.285C687.636 194.803 687.05 195.553 686.638 196.533C686.234 197.513 686.031 198.699 686.031 200.091C686.031 201.54 686.237 202.754 686.649 203.734C687.068 204.707 687.654 205.442 688.407 205.94C689.167 206.43 690.065 206.675 691.102 206.675C691.685 206.675 692.214 206.6 692.69 206.451C693.173 206.302 693.595 206.085 693.957 205.801C694.327 205.51 694.629 205.158 694.863 204.746C695.104 204.327 695.271 203.855 695.364 203.33L700.69 203.362C700.598 204.327 700.317 205.279 699.849 206.217C699.387 207.154 698.751 208.01 697.942 208.784C697.132 209.551 696.145 210.162 694.98 210.616C693.822 211.071 692.494 211.298 690.996 211.298C689.021 211.298 687.253 210.865 685.69 209.999C684.135 209.125 682.906 207.854 682.004 206.185C681.102 204.516 680.651 202.484 680.651 200.091C680.651 197.69 681.109 195.656 682.026 193.987C682.942 192.317 684.181 191.05 685.744 190.183C687.306 189.317 689.057 188.884 690.996 188.884C692.317 188.884 693.538 189.068 694.661 189.438C695.783 189.8 696.77 190.332 697.622 191.036C698.474 191.732 699.167 192.587 699.7 193.603C700.232 194.619 700.562 195.78 700.69 197.087ZM711.346 211.309C709.628 211.309 708.15 210.957 706.915 210.254C705.686 209.544 704.738 208.557 704.07 207.293C703.41 206.021 703.079 204.548 703.079 202.871C703.079 201.188 703.41 199.714 704.07 198.45C704.738 197.179 705.686 196.192 706.915 195.489C708.15 194.778 709.628 194.423 711.346 194.423C713.065 194.423 714.539 194.778 715.768 195.489C717.003 196.192 717.952 197.179 718.612 198.45C719.28 199.714 719.613 201.188 719.613 202.871C719.613 204.548 719.28 206.021 718.612 207.293C717.952 208.557 717.003 209.544 715.768 210.254C714.539 210.957 713.065 211.309 711.346 211.309ZM711.378 207.378C712.003 207.378 712.532 207.186 712.966 206.803C713.399 206.419 713.729 205.886 713.956 205.205C714.191 204.523 714.308 203.734 714.308 202.839C714.308 201.93 714.191 201.135 713.956 200.453C713.729 199.771 713.399 199.239 712.966 198.855C712.532 198.472 712.003 198.28 711.378 198.28C710.732 198.28 710.185 198.472 709.738 198.855C709.297 199.239 708.96 199.771 708.726 200.453C708.498 201.135 708.385 201.93 708.385 202.839C708.385 203.734 708.498 204.523 708.726 205.205C708.96 205.886 709.297 206.419 709.738 206.803C710.185 207.186 710.732 207.378 711.378 207.378ZM722.282 211V194.636H727.236V197.641H727.417C727.758 196.646 728.333 195.862 729.143 195.286C729.953 194.711 730.919 194.423 732.041 194.423C733.177 194.423 734.15 194.714 734.96 195.297C735.769 195.879 736.284 196.661 736.504 197.641H736.675C736.98 196.668 737.577 195.89 738.465 195.308C739.352 194.718 740.4 194.423 741.607 194.423C743.156 194.423 744.413 194.92 745.379 195.915C746.345 196.902 746.828 198.259 746.828 199.984V211H741.618V201.178C741.618 200.361 741.409 199.739 740.99 199.313C740.57 198.88 740.027 198.663 739.36 198.663C738.642 198.663 738.078 198.898 737.666 199.366C737.261 199.828 737.058 200.45 737.058 201.231V211H732.051V201.124C732.051 200.364 731.845 199.764 731.433 199.324C731.021 198.884 730.478 198.663 729.803 198.663C729.349 198.663 728.948 198.773 728.6 198.994C728.252 199.207 727.978 199.512 727.779 199.91C727.588 200.308 727.492 200.776 727.492 201.316V211H722.282ZM750.056 211V194.636H755.009V197.641H755.191C755.531 196.646 756.107 195.862 756.916 195.286C757.726 194.711 758.692 194.423 759.814 194.423C760.95 194.423 761.923 194.714 762.733 195.297C763.543 195.879 764.058 196.661 764.278 197.641H764.448C764.754 196.668 765.35 195.89 766.238 195.308C767.126 194.718 768.173 194.423 769.381 194.423C770.929 194.423 772.186 194.92 773.152 195.915C774.118 196.902 774.601 198.259 774.601 199.984V211H769.392V201.178C769.392 200.361 769.182 199.739 768.763 199.313C768.344 198.88 767.801 198.663 767.133 198.663C766.416 198.663 765.851 198.898 765.439 199.366C765.034 199.828 764.832 200.45 764.832 201.231V211H759.825V201.124C759.825 200.364 759.619 199.764 759.207 199.324C758.795 198.884 758.252 198.663 757.577 198.663C757.122 198.663 756.721 198.773 756.373 198.994C756.025 199.207 755.752 199.512 755.553 199.91C755.361 200.308 755.265 200.776 755.265 201.316V211H750.056ZM785.468 211.309C783.749 211.309 782.271 210.957 781.036 210.254C779.807 209.544 778.859 208.557 778.191 207.293C777.531 206.021 777.2 204.548 777.2 202.871C777.2 201.188 777.531 199.714 778.191 198.45C778.859 197.179 779.807 196.192 781.036 195.489C782.271 194.778 783.749 194.423 785.468 194.423C787.186 194.423 788.66 194.778 789.889 195.489C791.124 196.192 792.073 197.179 792.733 198.45C793.401 199.714 793.735 201.188 793.735 202.871C793.735 204.548 793.401 206.021 792.733 207.293C792.073 208.557 791.124 209.544 789.889 210.254C788.66 210.957 787.186 211.309 785.468 211.309ZM785.499 207.378C786.124 207.378 786.654 207.186 787.087 206.803C787.52 206.419 787.85 205.886 788.078 205.205C788.312 204.523 788.429 203.734 788.429 202.839C788.429 201.93 788.312 201.135 788.078 200.453C787.85 199.771 787.52 199.239 787.087 198.855C786.654 198.472 786.124 198.28 785.499 198.28C784.853 198.28 784.306 198.472 783.859 198.855C783.419 199.239 783.081 199.771 782.847 200.453C782.619 201.135 782.506 201.93 782.506 202.839C782.506 203.734 782.619 204.523 782.847 205.205C783.081 205.886 783.419 206.419 783.859 206.803C784.306 207.186 784.853 207.378 785.499 207.378ZM801.613 201.668V211H796.403V194.636H801.357V197.641H801.538C801.9 196.639 802.518 195.854 803.392 195.286C804.265 194.711 805.306 194.423 806.513 194.423C807.664 194.423 808.662 194.683 809.507 195.201C810.359 195.712 811.02 196.43 811.488 197.353C811.964 198.269 812.199 199.342 812.192 200.57V211H806.982V201.593C806.989 200.684 806.758 199.974 806.29 199.462C805.828 198.951 805.185 198.695 804.361 198.695C803.814 198.695 803.331 198.816 802.912 199.058C802.501 199.292 802.181 199.629 801.954 200.07C801.733 200.51 801.62 201.043 801.613 201.668Z" fill="white"/>
<path opacity="0.6" d="M1025.84 189.182V211H1020.57V194.104H1020.44L1015.57 197.087V192.527L1020.95 189.182H1025.84ZM1039.18 211.298C1037.48 211.298 1035.97 211.028 1034.63 210.489C1033.3 209.942 1032.26 209.203 1031.5 208.273C1030.75 207.335 1030.37 206.277 1030.37 205.098C1030.37 204.196 1030.59 203.369 1031.02 202.616C1031.45 201.863 1032.04 201.238 1032.78 200.741C1033.52 200.237 1034.36 199.913 1035.27 199.771V199.601C1034.07 199.381 1033.09 198.823 1032.32 197.928C1031.56 197.033 1031.18 195.986 1031.18 194.786C1031.18 193.649 1031.52 192.637 1032.21 191.749C1032.91 190.862 1033.86 190.162 1035.06 189.651C1036.27 189.139 1037.64 188.884 1039.18 188.884C1040.72 188.884 1042.09 189.139 1043.29 189.651C1044.5 190.162 1045.45 190.862 1046.14 191.749C1046.83 192.637 1047.18 193.649 1047.18 194.786C1047.18 195.993 1046.79 197.044 1046.02 197.939C1045.25 198.827 1044.28 199.381 1043.09 199.601V199.771C1044 199.913 1044.82 200.237 1045.56 200.741C1046.31 201.238 1046.9 201.863 1047.33 202.616C1047.77 203.369 1047.99 204.196 1047.99 205.098C1047.99 206.277 1047.61 207.335 1046.85 208.273C1046.09 209.203 1045.05 209.942 1043.72 210.489C1042.4 211.028 1040.89 211.298 1039.18 211.298ZM1039.18 207.559C1039.83 207.559 1040.4 207.438 1040.89 207.197C1041.38 206.948 1041.76 206.604 1042.04 206.163C1042.32 205.723 1042.46 205.226 1042.46 204.672C1042.46 204.104 1042.32 203.599 1042.04 203.159C1041.75 202.719 1041.36 202.374 1040.86 202.126C1040.37 201.87 1039.81 201.742 1039.18 201.742C1038.56 201.742 1038 201.87 1037.5 202.126C1037 202.374 1036.61 202.719 1036.33 203.159C1036.04 203.599 1035.9 204.104 1035.9 204.672C1035.9 205.226 1036.04 205.723 1036.32 206.163C1036.6 206.597 1036.99 206.938 1037.48 207.186C1037.97 207.435 1038.54 207.559 1039.18 207.559ZM1039.18 198.024C1039.74 198.024 1040.23 197.911 1040.65 197.683C1041.08 197.456 1041.42 197.14 1041.66 196.735C1041.91 196.33 1042.04 195.872 1042.04 195.361C1042.04 194.849 1041.91 194.398 1041.66 194.008C1041.42 193.617 1041.09 193.312 1040.66 193.092C1040.24 192.864 1039.74 192.751 1039.18 192.751C1038.63 192.751 1038.13 192.864 1037.7 193.092C1037.27 193.312 1036.93 193.617 1036.69 194.008C1036.45 194.398 1036.33 194.849 1036.33 195.361C1036.33 195.872 1036.45 196.33 1036.69 196.735C1036.94 197.133 1037.28 197.449 1037.71 197.683C1038.14 197.911 1038.63 198.024 1039.18 198.024ZM1059.96 211.533C1058.05 211.533 1056.41 211.082 1055.03 210.18C1053.66 209.271 1052.59 207.967 1051.85 206.27C1051.1 204.565 1050.73 202.516 1050.74 200.123C1050.75 197.729 1051.12 195.698 1051.86 194.029C1052.6 192.353 1053.66 191.078 1055.03 190.205C1056.41 189.324 1058.05 188.884 1059.96 188.884C1061.86 188.884 1063.5 189.324 1064.88 190.205C1066.26 191.078 1067.33 192.353 1068.07 194.029C1068.82 195.705 1069.19 197.737 1069.18 200.123C1069.18 202.523 1068.81 204.576 1068.06 206.281C1067.32 207.985 1066.26 209.288 1064.88 210.19C1063.51 211.085 1061.87 211.533 1059.96 211.533ZM1059.96 207.218C1061.09 207.218 1062.01 206.639 1062.71 205.482C1063.42 204.317 1063.77 202.531 1063.76 200.123C1063.76 198.546 1063.6 197.246 1063.28 196.224C1062.96 195.194 1062.52 194.427 1061.95 193.923C1061.38 193.418 1060.72 193.166 1059.96 193.166C1058.83 193.166 1057.91 193.738 1057.22 194.881C1056.52 196.018 1056.17 197.765 1056.16 200.123C1056.16 201.721 1056.31 203.045 1056.62 204.097C1056.94 205.148 1057.39 205.933 1057.96 206.451C1058.54 206.962 1059.2 207.218 1059.96 207.218ZM1081.22 211.533C1079.32 211.533 1077.68 211.082 1076.3 210.18C1074.93 209.271 1073.86 207.967 1073.12 206.27C1072.37 204.565 1072 202.516 1072.01 200.123C1072.02 197.729 1072.39 195.698 1073.13 194.029C1073.87 192.353 1074.93 191.078 1076.3 190.205C1077.68 189.324 1079.32 188.884 1081.22 188.884C1083.13 188.884 1084.77 189.324 1086.15 190.205C1087.53 191.078 1088.6 192.353 1089.34 194.029C1090.09 195.705 1090.46 197.737 1090.45 200.123C1090.45 202.523 1090.08 204.576 1089.33 206.281C1088.59 207.985 1087.52 209.288 1086.15 210.19C1084.78 211.085 1083.14 211.533 1081.22 211.533ZM1081.22 207.218C1082.36 207.218 1083.28 206.639 1083.98 205.482C1084.69 204.317 1085.04 202.531 1085.03 200.123C1085.03 198.546 1084.87 197.246 1084.55 196.224C1084.23 195.194 1083.79 194.427 1083.22 193.923C1082.65 193.418 1081.98 193.166 1081.22 193.166C1080.1 193.166 1079.18 193.738 1078.49 194.881C1077.79 196.018 1077.44 197.765 1077.43 200.123C1077.43 201.721 1077.58 203.045 1077.89 204.097C1078.21 205.148 1078.66 205.933 1079.23 206.451C1079.81 206.962 1080.47 207.218 1081.22 207.218Z" fill="white"/>
<path opacity="0.4" d="M134.683 278.182H140.574L145.187 287.312H145.379L149.992 278.182H155.883L147.904 292.713V300H142.662V292.713L134.683 278.182ZM161.964 300.309C160.252 300.309 158.775 299.972 157.532 299.297C156.296 298.615 155.344 297.646 154.677 296.388C154.016 295.124 153.686 293.622 153.686 291.882C153.686 290.192 154.02 288.714 154.687 287.45C155.355 286.179 156.296 285.192 157.51 284.489C158.725 283.778 160.156 283.423 161.804 283.423C162.968 283.423 164.034 283.604 165 283.967C165.966 284.329 166.8 284.865 167.503 285.575C168.206 286.286 168.753 287.163 169.144 288.207C169.535 289.244 169.73 290.433 169.73 291.776V293.075H155.508V290.05H164.883C164.875 289.496 164.744 289.002 164.488 288.569C164.233 288.136 163.881 287.798 163.434 287.557C162.993 287.308 162.486 287.184 161.91 287.184C161.328 287.184 160.806 287.315 160.344 287.578C159.883 287.834 159.517 288.185 159.247 288.633C158.977 289.073 158.835 289.574 158.821 290.135V293.214C158.821 293.881 158.952 294.467 159.215 294.972C159.478 295.469 159.851 295.856 160.334 296.133C160.816 296.41 161.392 296.548 162.059 296.548C162.521 296.548 162.94 296.484 163.316 296.357C163.693 296.229 164.016 296.04 164.286 295.792C164.556 295.543 164.758 295.238 164.893 294.876L169.677 295.014C169.478 296.087 169.041 297.021 168.366 297.816C167.699 298.604 166.821 299.219 165.735 299.659C164.648 300.092 163.391 300.309 161.964 300.309ZM177.6 278.182V300H172.391V278.182H177.6ZM186.125 278.182V300H180.916V278.182H186.125ZM197.08 300.309C195.361 300.309 193.884 299.957 192.648 299.254C191.419 298.544 190.471 297.557 189.804 296.293C189.143 295.021 188.813 293.548 188.813 291.871C188.813 290.188 189.143 288.714 189.804 287.45C190.471 286.179 191.419 285.192 192.648 284.489C193.884 283.778 195.361 283.423 197.08 283.423C198.799 283.423 200.272 283.778 201.501 284.489C202.737 285.192 203.685 286.179 204.345 287.45C205.013 288.714 205.347 290.188 205.347 291.871C205.347 293.548 205.013 295.021 204.345 296.293C203.685 297.557 202.737 298.544 201.501 299.254C200.272 299.957 198.799 300.309 197.08 300.309ZM197.112 296.378C197.737 296.378 198.266 296.186 198.699 295.803C199.132 295.419 199.463 294.886 199.69 294.205C199.924 293.523 200.041 292.734 200.041 291.839C200.041 290.93 199.924 290.135 199.69 289.453C199.463 288.771 199.132 288.239 198.699 287.855C198.266 287.472 197.737 287.28 197.112 287.28C196.465 287.28 195.919 287.472 195.471 287.855C195.031 288.239 194.693 288.771 194.459 289.453C194.232 290.135 194.118 290.93 194.118 291.839C194.118 292.734 194.232 293.523 194.459 294.205C194.693 294.886 195.031 295.419 195.471 295.803C195.919 296.186 196.465 296.378 197.112 296.378ZM210.722 300L206.46 283.636H211.691L213.896 294.119H214.035L216.4 283.636H221.503L223.932 294.045H224.07L226.212 283.636H231.442L227.17 300H221.599L219.042 290.465H218.861L216.304 300H210.722Z" fill="white"/>
<path opacity="0.6" d="M676.156 278.182H681.418V292.255C681.418 293.881 681.031 295.298 680.257 296.506C679.483 297.706 678.403 298.636 677.018 299.297C675.634 299.95 674.025 300.277 672.192 300.277C670.339 300.277 668.719 299.95 667.335 299.297C665.95 298.636 664.874 297.706 664.107 296.506C663.339 295.298 662.956 293.881 662.956 292.255V278.182H668.229V291.797C668.229 292.55 668.393 293.221 668.719 293.81C669.053 294.4 669.518 294.862 670.115 295.195C670.712 295.529 671.404 295.696 672.192 295.696C672.981 295.696 673.67 295.529 674.259 295.195C674.856 294.862 675.321 294.4 675.655 293.81C675.989 293.221 676.156 292.55 676.156 291.797V278.182ZM689.933 290.668V300H684.724V283.636H689.677V286.641H689.858C690.221 285.639 690.839 284.854 691.712 284.286C692.586 283.711 693.626 283.423 694.834 283.423C695.984 283.423 696.982 283.683 697.827 284.201C698.68 284.712 699.34 285.43 699.809 286.353C700.285 287.269 700.519 288.342 700.512 289.57V300H695.302V290.593C695.309 289.684 695.079 288.974 694.61 288.462C694.148 287.951 693.506 287.695 692.682 287.695C692.135 287.695 691.652 287.816 691.233 288.058C690.821 288.292 690.501 288.629 690.274 289.07C690.054 289.51 689.94 290.043 689.933 290.668ZM711.376 300.309C709.65 300.309 708.169 299.954 706.933 299.244C705.705 298.533 704.76 297.546 704.099 296.282C703.439 295.011 703.109 293.54 703.109 291.871C703.109 290.195 703.439 288.725 704.099 287.461C704.767 286.19 705.715 285.199 706.944 284.489C708.18 283.778 709.653 283.423 711.365 283.423C712.878 283.423 714.195 283.697 715.317 284.244C716.447 284.79 717.327 285.565 717.96 286.566C718.599 287.56 718.936 288.729 718.972 290.071H714.103C714.004 289.233 713.719 288.576 713.251 288.1C712.789 287.624 712.185 287.386 711.44 287.386C710.836 287.386 710.307 287.557 709.852 287.898C709.398 288.232 709.043 288.729 708.787 289.389C708.538 290.043 708.414 290.852 708.414 291.818C708.414 292.784 708.538 293.601 708.787 294.268C709.043 294.929 709.398 295.43 709.852 295.771C710.307 296.104 710.836 296.271 711.44 296.271C711.923 296.271 712.349 296.168 712.718 295.962C713.094 295.756 713.403 295.455 713.645 295.057C713.886 294.652 714.039 294.162 714.103 293.587H718.972C718.922 294.936 718.585 296.115 717.96 297.124C717.342 298.132 716.472 298.917 715.349 299.478C714.234 300.032 712.91 300.309 711.376 300.309ZM729.276 300.309C727.557 300.309 726.08 299.957 724.844 299.254C723.616 298.544 722.667 297.557 722 296.293C721.339 295.021 721.009 293.548 721.009 291.871C721.009 290.188 721.339 288.714 722 287.45C722.667 286.179 723.616 285.192 724.844 284.489C726.08 283.778 727.557 283.423 729.276 283.423C730.995 283.423 732.469 283.778 733.697 284.489C734.933 285.192 735.881 286.179 736.542 287.45C737.209 288.714 737.543 290.188 737.543 291.871C737.543 293.548 737.209 295.021 736.542 296.293C735.881 297.557 734.933 298.544 733.697 299.254C732.469 299.957 730.995 300.309 729.276 300.309ZM729.308 296.378C729.933 296.378 730.462 296.186 730.895 295.803C731.329 295.419 731.659 294.886 731.886 294.205C732.121 293.523 732.238 292.734 732.238 291.839C732.238 290.93 732.121 290.135 731.886 289.453C731.659 288.771 731.329 288.239 730.895 287.855C730.462 287.472 729.933 287.28 729.308 287.28C728.662 287.28 728.115 287.472 727.667 287.855C727.227 288.239 726.89 288.771 726.655 289.453C726.428 290.135 726.314 290.93 726.314 291.839C726.314 292.734 726.428 293.523 726.655 294.205C726.89 294.886 727.227 295.419 727.667 295.803C728.115 296.186 728.662 296.378 729.308 296.378ZM740.212 300V283.636H745.166V286.641H745.347C745.688 285.646 746.263 284.862 747.073 284.286C747.882 283.711 748.848 283.423 749.97 283.423C751.107 283.423 752.08 283.714 752.889 284.297C753.699 284.879 754.214 285.661 754.434 286.641H754.605C754.91 285.668 755.507 284.89 756.394 284.308C757.282 283.718 758.33 283.423 759.537 283.423C761.085 283.423 762.343 283.92 763.308 284.915C764.274 285.902 764.757 287.259 764.757 288.984V300H759.548V290.178C759.548 289.361 759.338 288.739 758.919 288.313C758.5 287.88 757.957 287.663 757.289 287.663C756.572 287.663 756.007 287.898 755.595 288.366C755.191 288.828 754.988 289.45 754.988 290.231V300H749.981V290.124C749.981 289.364 749.775 288.764 749.363 288.324C748.951 287.884 748.408 287.663 747.733 287.663C747.279 287.663 746.877 287.773 746.529 287.994C746.181 288.207 745.908 288.512 745.709 288.91C745.517 289.308 745.421 289.776 745.421 290.316V300H740.212ZM767.985 300V283.636H772.939V286.641H773.12C773.461 285.646 774.036 284.862 774.846 284.286C775.656 283.711 776.622 283.423 777.744 283.423C778.88 283.423 779.853 283.714 780.663 284.297C781.472 284.879 781.987 285.661 782.208 286.641H782.378C782.683 285.668 783.28 284.89 784.168 284.308C785.056 283.718 786.103 283.423 787.311 283.423C788.859 283.423 790.116 283.92 791.082 284.915C792.048 285.902 792.531 287.259 792.531 288.984V300H787.321V290.178C787.321 289.361 787.112 288.739 786.693 288.313C786.274 287.88 785.73 287.663 785.063 287.663C784.345 287.663 783.781 287.898 783.369 288.366C782.964 288.828 782.762 289.45 782.762 290.231V300H777.754V290.124C777.754 289.364 777.548 288.764 777.137 288.324C776.725 287.884 776.181 287.663 775.507 287.663C775.052 287.663 774.651 287.773 774.303 287.994C773.955 288.207 773.681 288.512 773.482 288.91C773.291 289.308 773.195 289.776 773.195 290.316V300H767.985ZM803.397 300.309C801.678 300.309 800.201 299.957 798.965 299.254C797.737 298.544 796.789 297.557 796.121 296.293C795.46 295.021 795.13 293.548 795.13 291.871C795.13 290.188 795.46 288.714 796.121 287.45C796.789 286.179 797.737 285.192 798.965 284.489C800.201 283.778 801.678 283.423 803.397 283.423C805.116 283.423 806.59 283.778 807.818 284.489C809.054 285.192 810.002 286.179 810.663 287.45C811.33 288.714 811.664 290.188 811.664 291.871C811.664 293.548 811.33 295.021 810.663 296.293C810.002 297.557 809.054 298.544 807.818 299.254C806.59 299.957 805.116 300.309 803.397 300.309ZM803.429 296.378C804.054 296.378 804.583 296.186 805.017 295.803C805.45 295.419 805.78 294.886 806.007 294.205C806.242 293.523 806.359 292.734 806.359 291.839C806.359 290.93 806.242 290.135 806.007 289.453C805.78 288.771 805.45 288.239 805.017 287.855C804.583 287.472 804.054 287.28 803.429 287.28C802.783 287.28 802.236 287.472 801.789 287.855C801.348 288.239 801.011 288.771 800.776 289.453C800.549 290.135 800.436 290.93 800.436 291.839C800.436 292.734 800.549 293.523 800.776 294.205C801.011 294.886 801.348 295.419 801.789 295.803C802.236 296.186 802.783 296.378 803.429 296.378ZM819.542 290.668V300H814.333V283.636H819.287V286.641H819.468C819.83 285.639 820.448 284.854 821.322 284.286C822.195 283.711 823.236 283.423 824.443 283.423C825.594 283.423 826.591 283.683 827.437 284.201C828.289 284.712 828.949 285.43 829.418 286.353C829.894 287.269 830.128 288.342 830.121 289.57V300H824.912V290.593C824.919 289.684 824.688 288.974 824.219 288.462C823.758 287.951 823.115 287.695 822.291 287.695C821.744 287.695 821.261 287.816 820.842 288.058C820.43 288.292 820.111 288.629 819.883 289.07C819.663 289.51 819.55 290.043 819.542 290.668Z" fill="white"/>
<path opacity="0.6" d="M1025.84 278.182V300H1020.57V283.104H1020.45L1015.57 286.087V281.527L1020.95 278.182H1025.84ZM1039.68 300.533C1037.78 300.533 1036.14 300.082 1034.76 299.18C1033.38 298.271 1032.32 296.967 1031.58 295.27C1030.83 293.565 1030.46 291.516 1030.47 289.123C1030.48 286.729 1030.85 284.698 1031.59 283.029C1032.33 281.353 1033.39 280.078 1034.76 279.205C1036.14 278.324 1037.78 277.884 1039.68 277.884C1041.59 277.884 1043.23 278.324 1044.61 279.205C1045.99 280.078 1047.06 281.353 1047.8 283.029C1048.55 284.705 1048.92 286.737 1048.91 289.123C1048.91 291.523 1048.54 293.576 1047.79 295.281C1047.05 296.985 1045.98 298.288 1044.61 299.19C1043.23 300.085 1041.59 300.533 1039.68 300.533ZM1039.68 296.218C1040.82 296.218 1041.74 295.639 1042.44 294.482C1043.15 293.317 1043.49 291.531 1043.49 289.123C1043.49 287.546 1043.33 286.246 1043.01 285.224C1042.69 284.194 1042.24 283.427 1041.68 282.923C1041.11 282.418 1040.44 282.166 1039.68 282.166C1038.55 282.166 1037.64 282.738 1036.95 283.881C1036.25 285.018 1035.9 286.765 1035.89 289.123C1035.88 290.721 1036.04 292.045 1036.35 293.097C1036.67 294.148 1037.12 294.933 1037.69 295.451C1038.27 295.962 1038.93 296.218 1039.68 296.218ZM1060.95 300.533C1059.05 300.533 1057.41 300.082 1056.03 299.18C1054.65 298.271 1053.59 296.967 1052.85 295.27C1052.1 293.565 1051.73 291.516 1051.74 289.123C1051.75 286.729 1052.12 284.698 1052.86 283.029C1053.6 281.353 1054.66 280.078 1056.03 279.205C1057.41 278.324 1059.05 277.884 1060.95 277.884C1062.86 277.884 1064.5 278.324 1065.88 279.205C1067.26 280.078 1068.33 281.353 1069.07 283.029C1069.82 284.705 1070.19 286.737 1070.18 289.123C1070.18 291.523 1069.81 293.576 1069.06 295.281C1068.31 296.985 1067.25 298.288 1065.88 299.19C1064.5 300.085 1062.86 300.533 1060.95 300.533ZM1060.95 296.218C1062.09 296.218 1063.01 295.639 1063.71 294.482C1064.42 293.317 1064.76 291.531 1064.76 289.123C1064.76 287.546 1064.6 286.246 1064.28 285.224C1063.96 284.194 1063.51 283.427 1062.95 282.923C1062.38 282.418 1061.71 282.166 1060.95 282.166C1059.82 282.166 1058.91 282.738 1058.22 283.881C1057.52 285.018 1057.17 286.765 1057.16 289.123C1057.15 290.721 1057.31 292.045 1057.62 293.097C1057.94 294.148 1058.39 294.933 1058.96 295.451C1059.54 295.962 1060.2 296.218 1060.95 296.218ZM1082.22 300.533C1080.32 300.533 1078.68 300.082 1077.3 299.18C1075.92 298.271 1074.86 296.967 1074.12 295.27C1073.37 293.565 1073 291.516 1073.01 289.123C1073.01 286.729 1073.39 284.698 1074.13 283.029C1074.87 281.353 1075.93 280.078 1077.3 279.205C1078.68 278.324 1080.32 277.884 1082.22 277.884C1084.13 277.884 1085.77 278.324 1087.14 279.205C1088.53 280.078 1089.6 281.353 1090.34 283.029C1091.09 284.705 1091.46 286.737 1091.45 289.123C1091.45 291.523 1091.08 293.576 1090.33 295.281C1089.58 296.985 1088.52 298.288 1087.14 299.19C1085.77 300.085 1084.13 300.533 1082.22 300.533ZM1082.22 296.218C1083.36 296.218 1084.28 295.639 1084.98 294.482C1085.69 293.317 1086.03 291.531 1086.03 289.123C1086.03 287.546 1085.87 286.246 1085.55 285.224C1085.23 284.194 1084.78 283.427 1084.22 282.923C1083.65 282.418 1082.98 282.166 1082.22 282.166C1081.09 282.166 1080.18 282.738 1079.48 283.881C1078.79 285.018 1078.44 286.765 1078.43 289.123C1078.42 290.721 1078.58 292.045 1078.89 293.097C1079.21 294.148 1079.66 294.933 1080.23 295.451C1080.81 295.962 1081.47 296.218 1082.22 296.218Z" fill="white"/>
<path opacity="0.4" d="M135.853 389V367.182H144.951C146.585 367.182 147.952 367.413 149.053 367.874C150.161 368.336 150.992 368.982 151.546 369.813C152.107 370.644 152.388 371.607 152.388 372.7C152.388 373.531 152.214 374.273 151.866 374.927C151.517 375.573 151.038 376.109 150.427 376.536C149.816 376.962 149.11 377.26 148.307 377.43V377.643C149.188 377.686 150.001 377.924 150.747 378.357C151.5 378.79 152.103 379.394 152.558 380.168C153.013 380.935 153.24 381.844 153.24 382.896C153.24 384.067 152.941 385.115 152.345 386.038C151.748 386.955 150.885 387.679 149.756 388.212C148.627 388.737 147.256 389 145.644 389H135.853ZM141.127 384.749H144.387C145.53 384.749 146.372 384.533 146.912 384.099C147.459 383.666 147.732 383.062 147.732 382.288C147.732 381.727 147.601 381.244 147.338 380.839C147.075 380.428 146.702 380.112 146.219 379.891C145.736 379.664 145.157 379.55 144.483 379.55H141.127V384.749ZM141.127 376.152H144.046C144.621 376.152 145.133 376.056 145.58 375.864C146.027 375.673 146.375 375.396 146.624 375.033C146.88 374.671 147.008 374.234 147.008 373.723C147.008 372.991 146.748 372.416 146.23 371.997C145.711 371.578 145.012 371.369 144.131 371.369H141.127V376.152ZM160.985 367.182V389H155.775V367.182H160.985ZM174.858 381.937V372.636H180.057V389H175.093V385.953H174.922C174.56 386.955 173.942 387.75 173.068 388.339C172.202 388.922 171.154 389.213 169.926 389.213C168.811 389.213 167.831 388.957 166.985 388.446C166.14 387.935 165.483 387.221 165.014 386.305C164.546 385.381 164.308 384.302 164.301 383.066V372.636H169.51V382.043C169.517 382.931 169.752 383.631 170.213 384.142C170.675 384.653 171.304 384.909 172.099 384.909C172.617 384.909 173.083 384.795 173.495 384.568C173.914 384.334 174.244 383.996 174.485 383.556C174.734 383.109 174.858 382.569 174.858 381.937ZM191.022 389.309C189.31 389.309 187.833 388.972 186.59 388.297C185.354 387.615 184.403 386.646 183.735 385.388C183.075 384.124 182.744 382.622 182.744 380.882C182.744 379.192 183.078 377.714 183.746 376.45C184.413 375.179 185.354 374.192 186.569 373.489C187.783 372.778 189.215 372.423 190.862 372.423C192.027 372.423 193.092 372.604 194.058 372.967C195.024 373.329 195.859 373.865 196.562 374.575C197.265 375.286 197.812 376.163 198.203 377.207C198.593 378.244 198.788 379.433 198.788 380.776V382.075H184.566V379.05H193.941C193.934 378.496 193.803 378.002 193.547 377.569C193.291 377.136 192.94 376.798 192.492 376.557C192.052 376.308 191.544 376.184 190.969 376.184C190.386 376.184 189.864 376.315 189.403 376.578C188.941 376.834 188.575 377.185 188.305 377.633C188.036 378.073 187.894 378.574 187.879 379.135V382.214C187.879 382.881 188.011 383.467 188.274 383.972C188.536 384.469 188.909 384.856 189.392 385.133C189.875 385.41 190.45 385.548 191.118 385.548C191.58 385.548 191.999 385.484 192.375 385.357C192.752 385.229 193.075 385.04 193.345 384.792C193.614 384.543 193.817 384.238 193.952 383.876L198.735 384.014C198.536 385.087 198.1 386.021 197.425 386.816C196.757 387.604 195.88 388.219 194.793 388.659C193.707 389.092 192.45 389.309 191.022 389.309Z" fill="white"/>
<path opacity="0.6" d="M714.004 389V367.182H723.017C724.65 367.182 726.06 367.477 727.246 368.066C728.439 368.648 729.359 369.487 730.005 370.58C730.652 371.667 730.975 372.956 730.975 374.447C730.975 375.96 730.644 377.246 729.984 378.304C729.323 379.355 728.386 380.158 727.171 380.712C725.957 381.259 724.519 381.532 722.857 381.532H717.157V377.377H721.877C722.672 377.377 723.336 377.274 723.869 377.068C724.409 376.855 724.817 376.536 725.094 376.109C725.371 375.676 725.509 375.122 725.509 374.447C725.509 373.773 725.371 373.215 725.094 372.775C724.817 372.327 724.409 371.994 723.869 371.773C723.329 371.546 722.665 371.433 721.877 371.433H719.277V389H714.004ZM726.287 379.028L731.72 389H725.968L720.641 379.028H726.287ZM738.48 389.277C737.436 389.277 736.509 389.103 735.699 388.755C734.897 388.4 734.261 387.867 733.793 387.157C733.331 386.44 733.1 385.541 733.1 384.462C733.1 383.553 733.26 382.786 733.579 382.161C733.899 381.536 734.339 381.028 734.9 380.637C735.462 380.246 736.108 379.952 736.839 379.753C737.571 379.547 738.352 379.408 739.183 379.337C740.114 379.252 740.863 379.163 741.431 379.071C741.999 378.972 742.411 378.833 742.667 378.656C742.93 378.471 743.061 378.212 743.061 377.878V377.825C743.061 377.278 742.873 376.855 742.496 376.557C742.12 376.259 741.612 376.109 740.973 376.109C740.284 376.109 739.73 376.259 739.311 376.557C738.892 376.855 738.626 377.267 738.512 377.793L733.707 377.622C733.849 376.628 734.215 375.74 734.805 374.959C735.401 374.17 736.218 373.553 737.255 373.105C738.299 372.651 739.552 372.423 741.016 372.423C742.06 372.423 743.022 372.548 743.903 372.796C744.783 373.038 745.55 373.393 746.204 373.862C746.857 374.323 747.361 374.891 747.717 375.566C748.079 376.241 748.26 377.011 748.26 377.878V389H743.359V386.72H743.231C742.94 387.274 742.567 387.743 742.113 388.126C741.665 388.51 741.136 388.798 740.525 388.989C739.922 389.181 739.24 389.277 738.48 389.277ZM740.089 385.868C740.65 385.868 741.154 385.754 741.601 385.527C742.056 385.3 742.418 384.987 742.688 384.589C742.958 384.185 743.093 383.716 743.093 383.183V381.628C742.944 381.706 742.763 381.777 742.55 381.841C742.344 381.905 742.116 381.965 741.868 382.022C741.619 382.079 741.364 382.129 741.101 382.171C740.838 382.214 740.586 382.253 740.344 382.288C739.854 382.366 739.435 382.487 739.087 382.651C738.746 382.814 738.484 383.027 738.299 383.29C738.121 383.545 738.033 383.851 738.033 384.206C738.033 384.746 738.224 385.158 738.608 385.442C738.998 385.726 739.492 385.868 740.089 385.868ZM751.445 389V372.636H756.506V375.619H756.676C756.974 374.54 757.461 373.737 758.136 373.212C758.81 372.679 759.595 372.413 760.49 372.413C760.731 372.413 760.98 372.43 761.236 372.466C761.491 372.494 761.729 372.54 761.949 372.604V377.132C761.701 377.047 761.374 376.979 760.969 376.93C760.572 376.88 760.217 376.855 759.904 376.855C759.286 376.855 758.729 376.994 758.231 377.271C757.741 377.54 757.354 377.92 757.07 378.411C756.793 378.893 756.655 379.462 756.655 380.115V389H751.445ZM770.872 389.309C769.16 389.309 767.683 388.972 766.44 388.297C765.204 387.615 764.252 386.646 763.585 385.388C762.924 384.124 762.594 382.622 762.594 380.882C762.594 379.192 762.928 377.714 763.595 376.45C764.263 375.179 765.204 374.192 766.419 373.489C767.633 372.778 769.064 372.423 770.712 372.423C771.877 372.423 772.942 372.604 773.908 372.967C774.874 373.329 775.708 373.865 776.411 374.575C777.115 375.286 777.661 376.163 778.052 377.207C778.443 378.244 778.638 379.433 778.638 380.776V382.075H764.416V379.05H773.791C773.784 378.496 773.652 378.002 773.397 377.569C773.141 377.136 772.789 376.798 772.342 376.557C771.902 376.308 771.394 376.184 770.818 376.184C770.236 376.184 769.714 376.315 769.252 376.578C768.791 376.834 768.425 377.185 768.155 377.633C767.885 378.073 767.743 378.574 767.729 379.135V382.214C767.729 382.881 767.86 383.467 768.123 383.972C768.386 384.469 768.759 384.856 769.242 385.133C769.725 385.41 770.3 385.548 770.968 385.548C771.429 385.548 771.848 385.484 772.225 385.357C772.601 385.229 772.924 385.04 773.194 384.792C773.464 384.543 773.666 384.238 773.801 383.876L778.585 384.014C778.386 385.087 777.949 386.021 777.274 386.816C776.607 387.604 775.73 388.219 774.643 388.659C773.556 389.092 772.299 389.309 770.872 389.309Z" fill="white"/>
<path opacity="0.6" d="M1032.49 389.298C1031.3 389.298 1030.16 389.107 1029.06 388.723C1027.97 388.332 1027 387.714 1026.14 386.869C1025.29 386.017 1024.62 384.902 1024.13 383.524C1023.64 382.139 1023.4 380.452 1023.41 378.464C1023.41 376.667 1023.63 375.055 1024.07 373.627C1024.5 372.192 1025.12 370.974 1025.92 369.973C1026.73 368.972 1027.7 368.208 1028.82 367.683C1029.95 367.15 1031.21 366.884 1032.6 366.884C1034.13 366.884 1035.47 367.182 1036.64 367.778C1037.81 368.368 1038.75 369.163 1039.45 370.165C1040.15 371.159 1040.57 372.267 1040.7 373.489H1035.51C1035.35 372.8 1035.01 372.278 1034.47 371.923C1033.95 371.56 1033.32 371.379 1032.6 371.379C1031.26 371.379 1030.27 371.958 1029.61 373.116C1028.95 374.273 1028.62 375.822 1028.6 377.761H1028.74C1029.04 377.107 1029.47 376.546 1030.03 376.077C1030.59 375.609 1031.24 375.25 1031.96 375.001C1032.69 374.746 1033.47 374.618 1034.28 374.618C1035.59 374.618 1036.74 374.92 1037.74 375.523C1038.75 376.127 1039.53 376.955 1040.1 378.006C1040.67 379.05 1040.95 380.246 1040.94 381.596C1040.95 383.116 1040.59 384.458 1039.88 385.623C1039.16 386.781 1038.16 387.683 1036.89 388.329C1035.63 388.975 1034.16 389.298 1032.49 389.298ZM1032.46 385.25C1033.11 385.25 1033.69 385.097 1034.2 384.792C1034.71 384.487 1035.11 384.071 1035.4 383.545C1035.69 383.02 1035.83 382.427 1035.83 381.766C1035.83 381.099 1035.69 380.506 1035.4 379.987C1035.12 379.469 1034.72 379.057 1034.21 378.751C1033.7 378.446 1033.12 378.293 1032.47 378.293C1032 378.293 1031.55 378.382 1031.14 378.56C1030.73 378.737 1030.37 378.986 1030.06 379.305C1029.77 379.618 1029.53 379.987 1029.36 380.413C1029.19 380.832 1029.1 381.287 1029.09 381.777C1029.1 382.423 1029.25 383.009 1029.54 383.535C1029.83 384.06 1030.23 384.479 1030.73 384.792C1031.24 385.097 1031.81 385.25 1032.46 385.25ZM1052.96 389.533C1051.05 389.533 1049.41 389.082 1048.03 388.18C1046.66 387.271 1045.59 385.967 1044.85 384.27C1044.1 382.565 1043.73 380.516 1043.74 378.123C1043.75 375.729 1044.12 373.698 1044.86 372.029C1045.6 370.353 1046.66 369.078 1048.03 368.205C1049.41 367.324 1051.05 366.884 1052.96 366.884C1054.86 366.884 1056.5 367.324 1057.88 368.205C1059.26 369.078 1060.33 370.353 1061.07 372.029C1061.82 373.705 1062.19 375.737 1062.18 378.123C1062.18 380.523 1061.81 382.576 1061.06 384.281C1060.32 385.985 1059.26 387.288 1057.88 388.19C1056.51 389.085 1054.87 389.533 1052.96 389.533ZM1052.96 385.218C1054.09 385.218 1055.01 384.639 1055.71 383.482C1056.42 382.317 1056.77 380.531 1056.76 378.123C1056.76 376.546 1056.6 375.246 1056.28 374.224C1055.96 373.194 1055.52 372.427 1054.95 371.923C1054.38 371.418 1053.72 371.166 1052.96 371.166C1051.83 371.166 1050.91 371.738 1050.22 372.881C1049.52 374.018 1049.17 375.765 1049.16 378.123C1049.16 379.721 1049.31 381.045 1049.62 382.097C1049.94 383.148 1050.39 383.933 1050.96 384.451C1051.54 384.962 1052.2 385.218 1052.96 385.218ZM1074.22 389.533C1072.32 389.533 1070.68 389.082 1069.3 388.18C1067.93 387.271 1066.86 385.967 1066.12 384.27C1065.37 382.565 1065 380.516 1065.01 378.123C1065.02 375.729 1065.39 373.698 1066.13 372.029C1066.87 370.353 1067.93 369.078 1069.3 368.205C1070.68 367.324 1072.32 366.884 1074.22 366.884C1076.13 366.884 1077.77 367.324 1079.15 368.205C1080.53 369.078 1081.6 370.353 1082.34 372.029C1083.09 373.705 1083.46 375.737 1083.45 378.123C1083.45 380.523 1083.08 382.576 1082.33 384.281C1081.59 385.985 1080.52 387.288 1079.15 388.19C1077.78 389.085 1076.14 389.533 1074.22 389.533ZM1074.22 385.218C1075.36 385.218 1076.28 384.639 1076.98 383.482C1077.69 382.317 1078.04 380.531 1078.03 378.123C1078.03 376.546 1077.87 375.246 1077.55 374.224C1077.23 373.194 1076.79 372.427 1076.22 371.923C1075.65 371.418 1074.98 371.166 1074.22 371.166C1073.1 371.166 1072.18 371.738 1071.49 372.881C1070.79 374.018 1070.44 375.765 1070.43 378.123C1070.43 379.721 1070.58 381.045 1070.89 382.097C1071.21 383.148 1071.66 383.933 1072.23 384.451C1072.81 384.962 1073.47 385.218 1074.22 385.218Z" fill="white"/>
<path opacity="0.4" d="M149.999 463.309C149.878 462.862 149.7 462.467 149.466 462.126C149.232 461.778 148.944 461.484 148.603 461.242C148.262 461.001 147.872 460.82 147.431 460.699C146.991 460.571 146.508 460.507 145.982 460.507C144.924 460.507 144.008 460.763 143.234 461.274C142.467 461.786 141.874 462.531 141.455 463.511C141.036 464.484 140.826 465.667 140.826 467.059C140.826 468.458 141.029 469.651 141.433 470.638C141.838 471.626 142.424 472.379 143.191 472.897C143.958 473.415 144.889 473.675 145.982 473.675C146.948 473.675 147.765 473.518 148.433 473.206C149.107 472.886 149.619 472.435 149.967 471.853C150.315 471.271 150.489 470.585 150.489 469.797L151.469 469.914H146.164V466.068H155.57V468.955C155.57 470.908 155.155 472.581 154.324 473.973C153.5 475.365 152.364 476.434 150.915 477.18C149.473 477.925 147.815 478.298 145.94 478.298C143.859 478.298 142.03 477.847 140.453 476.945C138.877 476.043 137.648 474.758 136.767 473.089C135.887 471.413 135.446 469.424 135.446 467.123C135.446 465.333 135.713 463.746 136.245 462.361C136.778 460.969 137.52 459.79 138.472 458.824C139.431 457.858 140.539 457.126 141.796 456.629C143.06 456.132 144.42 455.884 145.876 455.884C147.14 455.884 148.316 456.065 149.402 456.427C150.496 456.789 151.462 457.3 152.3 457.961C153.145 458.621 153.83 459.406 154.356 460.315C154.882 461.224 155.208 462.222 155.336 463.309H149.999ZM158.679 478V461.636H163.739V464.619H163.909C164.208 463.54 164.694 462.737 165.369 462.212C166.044 461.679 166.828 461.413 167.723 461.413C167.965 461.413 168.213 461.43 168.469 461.466C168.725 461.494 168.963 461.54 169.183 461.604V466.132C168.934 466.047 168.608 465.979 168.203 465.93C167.805 465.88 167.45 465.855 167.137 465.855C166.52 465.855 165.962 465.994 165.465 466.271C164.975 466.54 164.588 466.92 164.304 467.411C164.027 467.893 163.888 468.462 163.888 469.115V478H158.679ZM178.105 478.309C176.393 478.309 174.916 477.972 173.673 477.297C172.438 476.615 171.486 475.646 170.818 474.388C170.158 473.124 169.827 471.622 169.827 469.882C169.827 468.192 170.161 466.714 170.829 465.45C171.496 464.179 172.438 463.192 173.652 462.489C174.866 461.778 176.298 461.423 177.945 461.423C179.11 461.423 180.175 461.604 181.141 461.967C182.107 462.329 182.942 462.865 183.645 463.575C184.348 464.286 184.895 465.163 185.286 466.207C185.676 467.244 185.871 468.433 185.871 469.776V471.075H171.649V468.05H181.024C181.017 467.496 180.886 467.002 180.63 466.569C180.374 466.136 180.023 465.798 179.575 465.557C179.135 465.308 178.627 465.184 178.052 465.184C177.469 465.184 176.947 465.315 176.486 465.578C176.024 465.834 175.658 466.185 175.388 466.633C175.119 467.073 174.977 467.574 174.962 468.135V471.214C174.962 471.881 175.094 472.467 175.357 472.972C175.619 473.469 175.992 473.856 176.475 474.133C176.958 474.41 177.533 474.548 178.201 474.548C178.663 474.548 179.082 474.484 179.458 474.357C179.835 474.229 180.158 474.04 180.428 473.792C180.697 473.543 180.9 473.238 181.035 472.876L185.818 473.014C185.619 474.087 185.183 475.021 184.508 475.816C183.84 476.604 182.963 477.219 181.876 477.659C180.79 478.092 179.533 478.309 178.105 478.309ZM196.181 478.309C194.47 478.309 192.992 477.972 191.749 477.297C190.514 476.615 189.562 475.646 188.894 474.388C188.234 473.124 187.904 471.622 187.904 469.882C187.904 468.192 188.237 466.714 188.905 465.45C189.573 464.179 190.514 463.192 191.728 462.489C192.943 461.778 194.374 461.423 196.021 461.423C197.186 461.423 198.252 461.604 199.218 461.967C200.183 462.329 201.018 462.865 201.721 463.575C202.424 464.286 202.971 465.163 203.362 466.207C203.752 467.244 203.948 468.433 203.948 469.776V471.075H189.725V468.05H199.1C199.093 467.496 198.962 467.002 198.706 466.569C198.45 466.136 198.099 465.798 197.651 465.557C197.211 465.308 196.703 465.184 196.128 465.184C195.546 465.184 195.024 465.315 194.562 465.578C194.1 465.834 193.735 466.185 193.465 466.633C193.195 467.073 193.053 467.574 193.039 468.135V471.214C193.039 471.881 193.17 472.467 193.433 472.972C193.695 473.469 194.068 473.856 194.551 474.133C195.034 474.41 195.61 474.548 196.277 474.548C196.739 474.548 197.158 474.484 197.534 474.357C197.911 474.229 198.234 474.04 198.504 473.792C198.774 473.543 198.976 473.238 199.111 472.876L203.894 473.014C203.695 474.087 203.259 475.021 202.584 475.816C201.916 476.604 201.039 477.219 199.953 477.659C198.866 478.092 197.609 478.309 196.181 478.309ZM211.818 468.668V478H206.608V461.636H211.562V464.641H211.743C212.105 463.639 212.723 462.854 213.597 462.286C214.471 461.711 215.511 461.423 216.718 461.423C217.869 461.423 218.867 461.683 219.712 462.201C220.564 462.712 221.225 463.43 221.694 464.353C222.169 465.269 222.404 466.342 222.397 467.57V478H217.187V468.593C217.194 467.684 216.963 466.974 216.495 466.462C216.033 465.951 215.39 465.695 214.566 465.695C214.02 465.695 213.537 465.816 213.118 466.058C212.706 466.292 212.386 466.629 212.159 467.07C211.939 467.51 211.825 468.043 211.818 468.668Z" fill="white"/>
<path opacity="0.6" d="M669.022 478V456.182H674.296V473.717H683.373V478H669.022ZM693.752 478.309C692.04 478.309 690.563 477.972 689.32 477.297C688.084 476.615 687.132 475.646 686.465 474.388C685.804 473.124 685.474 471.622 685.474 469.882C685.474 468.192 685.808 466.714 686.475 465.45C687.143 464.179 688.084 463.192 689.298 462.489C690.513 461.778 691.944 461.423 693.592 461.423C694.757 461.423 695.822 461.604 696.788 461.967C697.754 462.329 698.588 462.865 699.291 463.575C699.994 464.286 700.541 465.163 700.932 466.207C701.323 467.244 701.518 468.433 701.518 469.776V471.075H687.296V468.05H696.671C696.664 467.496 696.532 467.002 696.276 466.569C696.021 466.136 695.669 465.798 695.222 465.557C694.781 465.308 694.274 465.184 693.698 465.184C693.116 465.184 692.594 465.315 692.132 465.578C691.671 465.834 691.305 466.185 691.035 466.633C690.765 467.073 690.623 467.574 690.609 468.135V471.214C690.609 471.881 690.74 472.467 691.003 472.972C691.266 473.469 691.639 473.856 692.122 474.133C692.605 474.41 693.18 474.548 693.847 474.548C694.309 474.548 694.728 474.484 695.105 474.357C695.481 474.229 695.804 474.04 696.074 473.792C696.344 473.543 696.546 473.238 696.681 472.876L701.465 473.014C701.266 474.087 700.829 475.021 700.154 475.816C699.487 476.604 698.61 477.219 697.523 477.659C696.436 478.092 695.179 478.309 693.752 478.309ZM711.806 484.477C710.251 484.477 708.919 484.261 707.811 483.827C706.703 483.394 705.833 482.801 705.201 482.048C704.569 481.295 704.189 480.443 704.061 479.491L708.994 479.214C709.086 479.548 709.257 479.839 709.505 480.088C709.761 480.337 710.091 480.528 710.496 480.663C710.908 480.798 711.391 480.866 711.945 480.866C712.819 480.866 713.539 480.653 714.108 480.227C714.683 479.808 714.971 479.072 714.971 478.021V475.145H714.789C714.583 475.649 714.271 476.1 713.852 476.498C713.433 476.896 712.911 477.208 712.286 477.435C711.668 477.663 710.958 477.776 710.155 477.776C708.962 477.776 707.868 477.499 706.874 476.945C705.887 476.384 705.095 475.518 704.498 474.346C703.909 473.167 703.614 471.651 703.614 469.797C703.614 467.886 703.919 466.313 704.53 465.077C705.141 463.835 705.94 462.915 706.927 462.318C707.922 461.722 708.99 461.423 710.134 461.423C710.993 461.423 711.728 461.572 712.339 461.871C712.957 462.162 713.465 462.538 713.863 463C714.26 463.462 714.562 463.941 714.768 464.438H714.917V461.636H720.105V478.064C720.105 479.449 719.757 480.617 719.061 481.569C718.365 482.521 717.392 483.241 716.142 483.732C714.892 484.229 713.447 484.477 711.806 484.477ZM711.966 473.984C712.598 473.984 713.138 473.817 713.586 473.483C714.033 473.149 714.377 472.67 714.619 472.045C714.86 471.42 714.981 470.67 714.981 469.797C714.981 468.909 714.86 468.146 714.619 467.506C714.385 466.86 714.04 466.363 713.586 466.015C713.138 465.667 712.598 465.493 711.966 465.493C711.32 465.493 710.773 465.67 710.326 466.026C709.878 466.381 709.537 466.881 709.303 467.528C709.076 468.167 708.962 468.923 708.962 469.797C708.962 470.67 709.079 471.42 709.314 472.045C709.548 472.67 709.885 473.149 710.326 473.483C710.773 473.817 711.32 473.984 711.966 473.984ZM731.076 478.309C729.364 478.309 727.887 477.972 726.644 477.297C725.408 476.615 724.456 475.646 723.789 474.388C723.128 473.124 722.798 471.622 722.798 469.882C722.798 468.192 723.132 466.714 723.8 465.45C724.467 464.179 725.408 463.192 726.623 462.489C727.837 461.778 729.268 461.423 730.916 461.423C732.081 461.423 733.146 461.604 734.112 461.967C735.078 462.329 735.912 462.865 736.616 463.575C737.319 464.286 737.866 465.163 738.256 466.207C738.647 467.244 738.842 468.433 738.842 469.776V471.075H724.62V468.05H733.995C733.988 467.496 733.856 467.002 733.601 466.569C733.345 466.136 732.993 465.798 732.546 465.557C732.106 465.308 731.598 465.184 731.023 465.184C730.44 465.184 729.918 465.315 729.456 465.578C728.995 465.834 728.629 466.185 728.359 466.633C728.089 467.073 727.947 467.574 727.933 468.135V471.214C727.933 471.881 728.064 472.467 728.327 472.972C728.59 473.469 728.963 473.856 729.446 474.133C729.929 474.41 730.504 474.548 731.172 474.548C731.633 474.548 732.052 474.484 732.429 474.357C732.805 474.229 733.128 474.04 733.398 473.792C733.668 473.543 733.871 473.238 734.006 472.876L738.789 473.014C738.59 474.087 738.153 475.021 737.479 475.816C736.811 476.604 735.934 477.219 734.847 477.659C733.76 478.092 732.503 478.309 731.076 478.309ZM746.712 468.668V478H741.503V461.636H746.457V464.641H746.638C747 463.639 747.618 462.854 748.491 462.286C749.365 461.711 750.406 461.423 751.613 461.423C752.763 461.423 753.761 461.683 754.607 462.201C755.459 462.712 756.119 463.43 756.588 464.353C757.064 465.269 757.298 466.342 757.291 467.57V478H752.082V468.593C752.089 467.684 751.858 466.974 751.389 466.462C750.928 465.951 750.285 465.695 749.461 465.695C748.914 465.695 748.431 465.816 748.012 466.058C747.6 466.292 747.281 466.629 747.053 467.07C746.833 467.51 746.719 468.043 746.712 468.668ZM766.493 478.234C765.286 478.234 764.188 477.922 763.201 477.297C762.214 476.672 761.426 475.734 760.836 474.484C760.247 473.234 759.952 471.683 759.952 469.829C759.952 467.904 760.257 466.32 760.868 465.077C761.479 463.835 762.278 462.915 763.265 462.318C764.259 461.722 765.328 461.423 766.472 461.423C767.331 461.423 768.066 461.572 768.677 461.871C769.288 462.162 769.792 462.538 770.19 463C770.588 463.462 770.889 463.941 771.095 464.438H771.202V456.182H776.411V478H771.255V475.347H771.095C770.875 475.852 770.563 476.324 770.158 476.764C769.753 477.205 769.245 477.56 768.634 477.83C768.031 478.099 767.317 478.234 766.493 478.234ZM768.304 474.175C768.936 474.175 769.476 473.998 769.923 473.643C770.371 473.281 770.715 472.773 770.957 472.119C771.198 471.466 771.319 470.699 771.319 469.818C771.319 468.923 771.198 468.153 770.957 467.506C770.722 466.86 770.378 466.363 769.923 466.015C769.476 465.667 768.936 465.493 768.304 465.493C767.658 465.493 767.111 465.67 766.664 466.026C766.216 466.381 765.875 466.881 765.641 467.528C765.414 468.174 765.3 468.937 765.3 469.818C765.3 470.699 765.417 471.466 765.651 472.119C765.886 472.773 766.223 473.281 766.664 473.643C767.111 473.998 767.658 474.175 768.304 474.175ZM784.319 478.277C783.275 478.277 782.348 478.103 781.538 477.755C780.736 477.4 780.1 476.867 779.631 476.157C779.17 475.44 778.939 474.541 778.939 473.462C778.939 472.553 779.099 471.786 779.418 471.161C779.738 470.536 780.178 470.028 780.739 469.637C781.3 469.246 781.947 468.952 782.678 468.753C783.41 468.547 784.191 468.408 785.022 468.337C785.952 468.252 786.702 468.163 787.27 468.071C787.838 467.972 788.25 467.833 788.506 467.656C788.768 467.471 788.9 467.212 788.9 466.878V466.825C788.9 466.278 788.712 465.855 788.335 465.557C787.959 465.259 787.451 465.109 786.812 465.109C786.123 465.109 785.569 465.259 785.15 465.557C784.731 465.855 784.464 466.267 784.351 466.793L779.546 466.622C779.688 465.628 780.054 464.74 780.643 463.959C781.24 463.17 782.057 462.553 783.094 462.105C784.138 461.651 785.391 461.423 786.854 461.423C787.898 461.423 788.861 461.548 789.741 461.796C790.622 462.038 791.389 462.393 792.043 462.862C792.696 463.323 793.2 463.891 793.555 464.566C793.918 465.241 794.099 466.011 794.099 466.878V478H789.198V475.72H789.07C788.779 476.274 788.406 476.743 787.952 477.126C787.504 477.51 786.975 477.798 786.364 477.989C785.761 478.181 785.079 478.277 784.319 478.277ZM785.928 474.868C786.489 474.868 786.993 474.754 787.44 474.527C787.895 474.3 788.257 473.987 788.527 473.589C788.797 473.185 788.932 472.716 788.932 472.183V470.628C788.783 470.706 788.602 470.777 788.388 470.841C788.183 470.905 787.955 470.965 787.707 471.022C787.458 471.079 787.202 471.129 786.94 471.171C786.677 471.214 786.425 471.253 786.183 471.288C785.693 471.366 785.274 471.487 784.926 471.651C784.585 471.814 784.322 472.027 784.138 472.29C783.96 472.545 783.871 472.851 783.871 473.206C783.871 473.746 784.063 474.158 784.447 474.442C784.837 474.726 785.331 474.868 785.928 474.868ZM797.284 478V461.636H802.344V464.619H802.515C802.813 463.54 803.3 462.737 803.974 462.212C804.649 461.679 805.434 461.413 806.329 461.413C806.57 461.413 806.819 461.43 807.075 461.466C807.33 461.494 807.568 461.54 807.788 461.604V466.132C807.54 466.047 807.213 465.979 806.808 465.93C806.411 465.88 806.055 465.855 805.743 465.855C805.125 465.855 804.567 465.994 804.07 466.271C803.58 466.54 803.193 466.92 802.909 467.411C802.632 467.893 802.494 468.462 802.494 469.115V478H797.284ZM813.594 484.136C812.969 484.136 812.38 484.087 811.826 483.987C811.272 483.895 810.796 483.771 810.398 483.614L811.549 479.832C812.06 480.003 812.522 480.102 812.934 480.131C813.353 480.159 813.712 480.092 814.01 479.928C814.315 479.772 814.55 479.491 814.713 479.087L814.915 478.597L809.099 461.636H814.553L817.568 473.312H817.739L820.796 461.636H826.283L820.114 479.566C819.816 480.461 819.393 481.249 818.847 481.931C818.307 482.62 817.607 483.16 816.748 483.55C815.896 483.941 814.844 484.136 813.594 484.136Z" fill="white"/>
<path opacity="0.6" d="M1043.63 478.298C1042.43 478.298 1041.29 478.107 1040.2 477.723C1039.1 477.332 1038.13 476.714 1037.28 475.869C1036.43 475.017 1035.75 473.902 1035.26 472.524C1034.77 471.139 1034.53 469.452 1034.54 467.464C1034.55 465.667 1034.77 464.055 1035.2 462.627C1035.63 461.192 1036.25 459.974 1037.05 458.973C1037.86 457.972 1038.83 457.208 1039.95 456.683C1041.08 456.15 1042.34 455.884 1043.73 455.884C1045.26 455.884 1046.61 456.182 1047.77 456.778C1048.94 457.368 1049.88 458.163 1050.58 459.165C1051.29 460.159 1051.7 461.267 1051.83 462.489H1046.64C1046.49 461.8 1046.14 461.278 1045.61 460.923C1045.08 460.56 1044.46 460.379 1043.73 460.379C1042.4 460.379 1041.4 460.958 1040.74 462.116C1040.09 463.273 1039.75 464.822 1039.74 466.761H1039.88C1040.18 466.107 1040.61 465.546 1041.17 465.077C1041.73 464.609 1042.37 464.25 1043.09 464.001C1043.83 463.746 1044.6 463.618 1045.42 463.618C1046.72 463.618 1047.88 463.92 1048.88 464.523C1049.88 465.127 1050.67 465.955 1051.23 467.006C1051.8 468.05 1052.08 469.246 1052.08 470.596C1052.08 472.116 1051.73 473.458 1051.01 474.623C1050.29 475.781 1049.3 476.683 1048.03 477.329C1046.76 477.975 1045.3 478.298 1043.63 478.298ZM1043.6 474.25C1044.24 474.25 1044.82 474.097 1045.33 473.792C1045.84 473.487 1046.24 473.071 1046.54 472.545C1046.83 472.02 1046.97 471.427 1046.96 470.766C1046.97 470.099 1046.83 469.506 1046.54 468.987C1046.25 468.469 1045.85 468.057 1045.34 467.751C1044.84 467.446 1044.26 467.293 1043.61 467.293C1043.13 467.293 1042.69 467.382 1042.27 467.56C1041.86 467.737 1041.5 467.986 1041.2 468.305C1040.9 468.618 1040.67 468.987 1040.5 469.413C1040.33 469.832 1040.24 470.287 1040.23 470.777C1040.24 471.423 1040.39 472.009 1040.68 472.535C1040.97 473.06 1041.37 473.479 1041.87 473.792C1042.37 474.097 1042.95 474.25 1043.6 474.25ZM1064.09 478.533C1062.19 478.533 1060.55 478.082 1059.17 477.18C1057.79 476.271 1056.73 474.967 1055.98 473.27C1055.24 471.565 1054.87 469.516 1054.87 467.123C1054.88 464.729 1055.25 462.698 1055.99 461.029C1056.74 459.353 1057.8 458.078 1059.17 457.205C1060.55 456.324 1062.19 455.884 1064.09 455.884C1065.99 455.884 1067.63 456.324 1069.01 457.205C1070.4 458.078 1071.46 459.353 1072.21 461.029C1072.95 462.705 1073.32 464.737 1073.32 467.123C1073.32 469.523 1072.94 471.576 1072.2 473.281C1071.45 474.985 1070.39 476.288 1069.01 477.19C1067.64 478.085 1066 478.533 1064.09 478.533ZM1064.09 474.218C1065.23 474.218 1066.15 473.639 1066.85 472.482C1067.55 471.317 1067.9 469.531 1067.89 467.123C1067.89 465.546 1067.73 464.246 1067.41 463.224C1067.09 462.194 1066.65 461.427 1066.08 460.923C1065.51 460.418 1064.85 460.166 1064.09 460.166C1062.96 460.166 1062.05 460.738 1061.35 461.881C1060.66 463.018 1060.3 464.765 1060.3 467.123C1060.29 468.721 1060.44 470.045 1060.76 471.097C1061.08 472.148 1061.52 472.933 1062.1 473.451C1062.67 473.962 1063.34 474.218 1064.09 474.218Z" fill="white"/>
<g filter="url(#filter0_bdi_322_506)">
<circle cx="458" cy="200" r="27" fill="#F05555" fill-opacity="0.8" shape-rendering="crispEdges"/>
</g>
<g filter="url(#filter1_bdi_322_506)">
<ellipse cx="458.5" cy="289" rx="26.5" ry="27" fill="#FFBF1C" fill-opacity="0.8" shape-rendering="crispEdges"/>
</g>
<g filter="url(#filter2_bdi_322_506)">
<ellipse cx="458.5" cy="378" rx="26.5" ry="27" fill="#3790FA" fill-opacity="0.8" shape-rendering="crispEdges"/>
</g>
<g filter="url(#filter3_bdi_322_506)">
<circle cx="458" cy="467" r="27" fill="#16ED52" fill-opacity="0.8" shape-rendering="crispEdges"/>
</g>
<path opacity="0.1" d="M331 537L331 62" stroke="white" stroke-width="2" stroke-linecap="round"/>
<path opacity="0.1" d="M589 537L589 62" stroke="white" stroke-width="2" stroke-linecap="round"/>
<path opacity="0.1" d="M917 537L917 62" stroke="white" stroke-width="2" stroke-linecap="round"/>
<defs>
<filter id="filter0_bdi_322_506" x="411" y="153" width="94" height="94" filterUnits="userSpaceOnUse" color-interpolation-filters="sRGB">
<feFlood flood-opacity="0" result="BackgroundImageFix"/>
<feGaussianBlur in="BackgroundImageFix" stdDeviation="10"/>
<feComposite in2="SourceAlpha" operator="in" result="effect1_backgroundBlur_322_506"/>
<feColorMatrix in="SourceAlpha" type="matrix" values="0 0 0 0 0 0 0 0 0 0 0 0 0 0 0 0 0 0 127 0" result="hardAlpha"/>
<feOffset/>
<feGaussianBlur stdDeviation="10"/>
<feComposite in2="hardAlpha" operator="out"/>
<feColorMatrix type="matrix" values="0 0 0 0 0.941176 0 0 0 0 0.333333 0 0 0 0 0.333333 0 0 0 0.4 0"/>
<feBlend mode="normal" in2="effect1_backgroundBlur_322_506" result="effect2_dropShadow_322_506"/>
<feBlend mode="normal" in="SourceGraphic" in2="effect2_dropShadow_322_506" result="shape"/>
<feColorMatrix in="SourceAlpha" type="matrix" values="0 0 0 0 0 0 0 0 0 0 0 0 0 0 0 0 0 0 127 0" result="hardAlpha"/>
<feOffset dy="4"/>
<feGaussianBlur stdDeviation="5"/>
<feComposite in2="hardAlpha" operator="arithmetic" k2="-1" k3="1"/>
<feColorMatrix type="matrix" values="0 0 0 0 0 0 0 0 0 0 0 0 0 0 0 0 0 0 0.2 0"/>
<feBlend mode="normal" in2="shape" result="effect3_innerShadow_322_506"/>
</filter>
<filter id="filter1_bdi_322_506" x="412" y="242" width="93" height="94" filterUnits="userSpaceOnUse" color-interpolation-filters="sRGB">
<feFlood flood-opacity="0" result="BackgroundImageFix"/>
<feGaussianBlur in="BackgroundImageFix" stdDeviation="10"/>
<feComposite in2="SourceAlpha" operator="in" result="effect1_backgroundBlur_322_506"/>
<feColorMatrix in="SourceAlpha" type="matrix" values="0 0 0 0 0 0 0 0 0 0 0 0 0 0 0 0 0 0 127 0" result="hardAlpha"/>
<feOffset/>
<feGaussianBlur stdDeviation="10"/>
<feComposite in2="hardAlpha" operator="out"/>
<feColorMatrix type="matrix" values="0 0 0 0 1 0 0 0 0 0.74902 0 0 0 0 0.109804 0 0 0 0.4 0"/>
<feBlend mode="normal" in2="effect1_backgroundBlur_322_506" result="effect2_dropShadow_322_506"/>
<feBlend mode="normal" in="SourceGraphic" in2="effect2_dropShadow_322_506" result="shape"/>
<feColorMatrix in="SourceAlpha" type="matrix" values="0 0 0 0 0 0 0 0 0 0 0 0 0 0 0 0 0 0 127 0" result="hardAlpha"/>
<feOffset dy="4"/>
<feGaussianBlur stdDeviation="5"/>
<feComposite in2="hardAlpha" operator="arithmetic" k2="-1" k3="1"/>
<feColorMatrix type="matrix" values="0 0 0 0 0 0 0 0 0 0 0 0 0 0 0 0 0 0 0.2 0"/>
<feBlend mode="normal" in2="shape" result="effect3_innerShadow_322_506"/>
</filter>
<filter id="filter2_bdi_322_506" x="412" y="331" width="93" height="94" filterUnits="userSpaceOnUse" color-interpolation-filters="sRGB">
<feFlood flood-opacity="0" result="BackgroundImageFix"/>
<feGaussianBlur in="BackgroundImageFix" stdDeviation="10"/>
<feComposite in2="SourceAlpha" operator="in" result="effect1_backgroundBlur_322_506"/>
<feColorMatrix in="SourceAlpha" type="matrix" values="0 0 0 0 0 0 0 0 0 0 0 0 0 0 0 0 0 0 127 0" result="hardAlpha"/>
<feOffset/>
<feGaussianBlur stdDeviation="10"/>
<feComposite in2="hardAlpha" operator="out"/>
<feColorMatrix type="matrix" values="0 0 0 0 0.215686 0 0 0 0 0.564706 0 0 0 0 0.980392 0 0 0 0.4 0"/>
<feBlend mode="normal" in2="effect1_backgroundBlur_322_506" result="effect2_dropShadow_322_506"/>
<feBlend mode="normal" in="SourceGraphic" in2="effect2_dropShadow_322_506" result="shape"/>
<feColorMatrix in="SourceAlpha" type="matrix" values="0 0 0 0 0 0 0 0 0 0 0 0 0 0 0 0 0 0 127 0" result="hardAlpha"/>
<feOffset dy="4"/>
<feGaussianBlur stdDeviation="5"/>
<feComposite in2="hardAlpha" operator="arithmetic" k2="-1" k3="1"/>
<feColorMatrix type="matrix" values="0 0 0 0 0 0 0 0 0 0 0 0 0 0 0 0 0 0 0.2 0"/>
<feBlend mode="normal" in2="shape" result="effect3_innerShadow_322_506"/>
</filter>
<filter id="filter3_bdi_322_506" x="411" y="420" width="94" height="94" filterUnits="userSpaceOnUse" color-interpolation-filters="sRGB">
<feFlood flood-opacity="0" result="BackgroundImageFix"/>
<feGaussianBlur in="BackgroundImageFix" stdDeviation="10"/>
<feComposite in2="SourceAlpha" operator="in" result="effect1_backgroundBlur_322_506"/>
<feColorMatrix in="SourceAlpha" type="matrix" values="0 0 0 0 0 0 0 0 0 0 0 0 0 0 0 0 0 0 127 0" result="hardAlpha"/>
<feOffset/>
<feGaussianBlur stdDeviation="10"/>
<feComposite in2="hardAlpha" operator="out"/>
<feColorMatrix type="matrix" values="0 0 0 0 0.0862745 0 0 0 0 0.929412 0 0 0 0 0.321569 0 0 0 0.4 0"/>
<feBlend mode="normal" in2="effect1_backgroundBlur_322_506" result="effect2_dropShadow_322_506"/>
<feBlend mode="normal" in="SourceGraphic" in2="effect2_dropShadow_322_506" result="shape"/>
<feColorMatrix in="SourceAlpha" type="matrix" values="0 0 0 0 0 0 0 0 0 0 0 0 0 0 0 0 0 0 127 0" result="hardAlpha"/>
<feOffset dy="4"/>
<feGaussianBlur stdDeviation="5"/>
<feComposite in2="hardAlpha" operator="arithmetic" k2="-1" k3="1"/>
<feColorMatrix type="matrix" values="0 0 0 0 0 0 0 0 0 0 0 0 0 0 0 0 0 0 0.2 0"/>
<feBlend mode="normal" in2="shape" result="effect3_innerShadow_322_506"/>
</filter>
</defs>
</svg>
