<svg width="240" height="38" viewBox="0 0 240 38" fill="none" xmlns="http://www.w3.org/2000/svg">
<path d="M8.30504 25.5682V5.45455H13.3903V25.5682H8.30504ZM0.790838 18.054V12.9688H20.9045V18.054H0.790838ZM39.4556 0.90909V30H33.305V6.74716H33.1346L26.4727 10.9233V5.46875L33.6744 0.90909H39.4556ZM59.0259 0.90909V30H52.8754V6.74716H52.7049L46.043 10.9233V5.46875L53.2447 0.90909H59.0259ZM65.94 30V25.5682L76.2951 15.9801C77.1758 15.1278 77.9144 14.3608 78.511 13.679C79.1171 12.9972 79.5763 12.3295 79.8888 11.6761C80.2013 11.0133 80.3576 10.2983 80.3576 9.53125C80.3576 8.67898 80.1635 7.94508 79.7752 7.32955C79.387 6.70455 78.8567 6.22633 78.1843 5.89489C77.512 5.55398 76.7496 5.38352 75.8974 5.38352C75.0072 5.38352 74.2307 5.56345 73.5678 5.9233C72.9049 6.28314 72.3936 6.79924 72.0337 7.47159C71.6739 8.14394 71.494 8.94413 71.494 9.87216H65.6559C65.6559 7.96875 66.0868 6.31629 66.9485 4.91477C67.8103 3.51326 69.0176 2.42898 70.5707 1.66193C72.1237 0.894885 73.9135 0.511363 75.94 0.511363C78.0233 0.511363 79.8368 0.880681 81.3803 1.61932C82.9334 2.34848 84.1407 3.36174 85.0025 4.65909C85.8642 5.95644 86.2951 7.44318 86.2951 9.11932C86.2951 10.2178 86.0773 11.3021 85.6417 12.3722C85.2156 13.4422 84.4532 14.6307 83.3548 15.9375C82.2563 17.2348 80.708 18.7926 78.7099 20.6108L74.4627 24.7727V24.9716H86.6786V30H65.94ZM97.7688 26.0227L97.6126 27.5852C97.4895 28.8352 97.2527 30.0805 96.9023 31.321C96.5614 32.571 96.2016 33.7027 95.8228 34.7159C95.4535 35.7292 95.1552 36.5246 94.9279 37.1023H91.0075C91.1495 36.5436 91.3436 35.7623 91.5898 34.7585C91.8361 33.7642 92.0681 32.6468 92.2859 31.4062C92.5037 30.1657 92.641 28.9015 92.6978 27.6136L92.7688 26.0227H97.7688ZM103.245 30V25.5682L113.6 15.9801C114.48 15.1278 115.219 14.3608 115.816 13.679C116.422 12.9972 116.881 12.3295 117.194 11.6761C117.506 11.0133 117.662 10.2983 117.662 9.53125C117.662 8.67898 117.468 7.94508 117.08 7.32955C116.692 6.70455 116.161 6.22633 115.489 5.89489C114.817 5.55398 114.054 5.38352 113.202 5.38352C112.312 5.38352 111.535 5.56345 110.873 5.9233C110.21 6.28314 109.698 6.79924 109.338 7.47159C108.979 8.14394 108.799 8.94413 108.799 9.87216H102.961C102.961 7.96875 103.391 6.31629 104.253 4.91477C105.115 3.51326 106.322 2.42898 107.875 1.66193C109.428 0.894885 111.218 0.511363 113.245 0.511363C115.328 0.511363 117.141 0.880681 118.685 1.61932C120.238 2.34848 121.445 3.36174 122.307 4.65909C123.169 5.95644 123.6 7.44318 123.6 9.11932C123.6 10.2178 123.382 11.3021 122.946 12.3722C122.52 13.4422 121.758 14.6307 120.659 15.9375C119.561 17.2348 118.013 18.7926 116.015 20.6108L111.767 24.7727V24.9716H123.983V30H103.245ZM139.065 30.3977C137.057 30.3977 135.268 30.0284 133.696 29.2898C132.133 28.5511 130.893 27.5331 129.974 26.2358C129.056 24.9384 128.577 23.4517 128.539 21.7756H134.505C134.572 22.9025 135.045 23.8163 135.926 24.517C136.806 25.2178 137.853 25.5682 139.065 25.5682C140.031 25.5682 140.883 25.3551 141.622 24.929C142.37 24.4934 142.952 23.892 143.369 23.125C143.795 22.3485 144.008 21.4583 144.008 20.4545C144.008 19.4318 143.79 18.5322 143.355 17.7557C142.929 16.9792 142.337 16.3731 141.579 15.9375C140.822 15.5019 139.955 15.2794 138.98 15.2699C138.127 15.2699 137.299 15.4451 136.494 15.7955C135.699 16.1458 135.078 16.6241 134.633 17.2301L129.164 16.25L130.542 0.90909H148.326V5.9375H135.613L134.86 13.2244H135.031C135.542 12.5047 136.314 11.9081 137.346 11.4347C138.378 10.9612 139.534 10.7244 140.812 10.7244C142.564 10.7244 144.127 11.1364 145.5 11.9602C146.873 12.7841 147.957 13.9157 148.752 15.3551C149.548 16.785 149.941 18.4328 149.931 20.2983C149.941 22.2585 149.486 24.0009 148.568 25.5256C147.659 27.0407 146.385 28.2339 144.747 29.1051C143.118 29.9669 141.224 30.3977 139.065 30.3977ZM165.386 30.3977C163.89 30.3883 162.446 30.1373 161.054 29.6449C159.671 29.1525 158.431 28.3523 157.332 27.2443C156.234 26.1364 155.362 24.6686 154.718 22.8409C154.084 21.0133 153.767 18.7689 153.767 16.108C153.776 13.6648 154.056 11.482 154.605 9.55966C155.163 7.62784 155.959 5.98958 156.991 4.64489C158.033 3.30019 159.278 2.27746 160.727 1.5767C162.176 0.866476 163.8 0.511363 165.599 0.511363C167.54 0.511363 169.254 0.890151 170.741 1.64773C172.228 2.39583 173.421 3.41383 174.321 4.7017C175.23 5.98958 175.779 7.43371 175.968 9.03409H169.903C169.666 8.02083 169.169 7.22538 168.412 6.64773C167.654 6.07008 166.717 5.78125 165.599 5.78125C163.705 5.78125 162.266 6.60511 161.281 8.25284C160.306 9.90057 159.808 12.1402 159.789 14.9716H159.988C160.424 14.1098 161.011 13.3759 161.75 12.7699C162.498 12.1544 163.345 11.6856 164.292 11.3636C165.249 11.0322 166.257 10.8665 167.318 10.8665C169.041 10.8665 170.575 11.2737 171.92 12.0881C173.265 12.893 174.325 14.0009 175.102 15.4119C175.878 16.8229 176.267 18.4375 176.267 20.2557C176.267 22.2254 175.807 23.9773 174.889 25.5114C173.98 27.0455 172.706 28.2481 171.068 29.1193C169.439 29.9811 167.545 30.4072 165.386 30.3977ZM165.358 25.5682C166.305 25.5682 167.152 25.3409 167.9 24.8864C168.648 24.4318 169.235 23.8163 169.662 23.0398C170.088 22.2633 170.301 21.392 170.301 20.4261C170.301 19.4602 170.088 18.5937 169.662 17.8267C169.245 17.0597 168.667 16.4489 167.929 15.9943C167.19 15.5398 166.347 15.3125 165.4 15.3125C164.69 15.3125 164.032 15.4451 163.426 15.7102C162.829 15.9754 162.304 16.3447 161.849 16.8182C161.404 17.2917 161.054 17.8409 160.798 18.4659C160.542 19.0814 160.414 19.7396 160.414 20.4403C160.414 21.3778 160.627 22.2348 161.054 23.0114C161.489 23.7879 162.076 24.4081 162.815 24.8722C163.563 25.3362 164.411 25.5682 165.358 25.5682ZM183.01 30.3693C182.073 30.3693 181.268 30.0379 180.596 29.375C179.933 28.7027 179.601 27.8977 179.601 26.9602C179.601 26.0322 179.933 25.2367 180.596 24.5739C181.268 23.911 182.073 23.5795 183.01 23.5795C183.919 23.5795 184.715 23.911 185.397 24.5739C186.078 25.2367 186.419 26.0322 186.419 26.9602C186.419 27.5852 186.258 28.1581 185.936 28.679C185.624 29.1903 185.212 29.6023 184.701 29.9148C184.189 30.2178 183.626 30.3693 183.01 30.3693ZM201.324 30.3977C199.827 30.3883 198.383 30.1373 196.991 29.6449C195.609 29.1525 194.368 28.3523 193.27 27.2443C192.171 26.1364 191.3 24.6686 190.656 22.8409C190.021 21.0133 189.704 18.7689 189.704 16.108C189.714 13.6648 189.993 11.482 190.542 9.55966C191.101 7.62784 191.896 5.98958 192.929 4.64489C193.97 3.30019 195.216 2.27746 196.664 1.5767C198.113 0.866476 199.737 0.511363 201.537 0.511363C203.478 0.511363 205.192 0.890151 206.679 1.64773C208.165 2.39583 209.359 3.41383 210.258 4.7017C211.167 5.98958 211.717 7.43371 211.906 9.03409H205.841C205.604 8.02083 205.107 7.22538 204.349 6.64773C203.592 6.07008 202.654 5.78125 201.537 5.78125C199.643 5.78125 198.203 6.60511 197.218 8.25284C196.243 9.90057 195.746 12.1402 195.727 14.9716H195.926C196.361 14.1098 196.949 13.3759 197.687 12.7699C198.435 12.1544 199.283 11.6856 200.23 11.3636C201.186 11.0322 202.195 10.8665 203.255 10.8665C204.979 10.8665 206.513 11.2737 207.858 12.0881C209.202 12.893 210.263 14.0009 211.039 15.4119C211.816 16.8229 212.204 18.4375 212.204 20.2557C212.204 22.2254 211.745 23.9773 210.826 25.5114C209.917 27.0455 208.644 28.2481 207.005 29.1193C205.377 29.9811 203.483 30.4072 201.324 30.3977ZM201.295 25.5682C202.242 25.5682 203.09 25.3409 203.838 24.8864C204.586 24.4318 205.173 23.8163 205.599 23.0398C206.025 22.2633 206.238 21.392 206.238 20.4261C206.238 19.4602 206.025 18.5937 205.599 17.8267C205.182 17.0597 204.605 16.4489 203.866 15.9943C203.127 15.5398 202.285 15.3125 201.338 15.3125C200.627 15.3125 199.969 15.4451 199.363 15.7102C198.767 15.9754 198.241 16.3447 197.787 16.8182C197.342 17.2917 196.991 17.8409 196.735 18.4659C196.48 19.0814 196.352 19.7396 196.352 20.4403C196.352 21.3778 196.565 22.2348 196.991 23.0114C197.427 23.7879 198.014 24.4081 198.752 24.8722C199.501 25.3362 200.348 25.5682 201.295 25.5682ZM227.971 30.6392C225.528 30.6297 223.426 30.0284 221.664 28.8352C219.913 27.642 218.563 25.9138 217.616 23.6506C216.679 21.3873 216.215 18.6648 216.224 15.483C216.224 12.3106 216.693 9.60701 217.63 7.37216C218.577 5.13731 219.927 3.4375 221.679 2.27273C223.44 1.09848 225.538 0.511363 227.971 0.511363C230.405 0.511363 232.498 1.09848 234.25 2.27273C236.011 3.44697 237.365 5.15151 238.312 7.38636C239.259 9.61174 239.728 12.3106 239.718 15.483C239.718 18.6742 239.245 21.4015 238.298 23.6648C237.36 25.928 236.016 27.6562 234.264 28.8494C232.512 30.0426 230.414 30.6392 227.971 30.6392ZM227.971 25.5398C229.638 25.5398 230.968 24.7017 231.963 23.0256C232.957 21.3494 233.449 18.8352 233.44 15.483C233.44 13.2765 233.213 11.4394 232.758 9.97159C232.313 8.50379 231.679 7.40057 230.855 6.66193C230.04 5.9233 229.079 5.55398 227.971 5.55398C226.314 5.55398 224.988 6.38258 223.994 8.03977C223 9.69697 222.498 12.178 222.488 15.483C222.488 17.7178 222.711 19.5833 223.156 21.0795C223.61 22.5663 224.25 23.6837 225.074 24.4318C225.897 25.1705 226.863 25.5398 227.971 25.5398Z" fill="url(#paint0_linear_322_405)"/>
<defs>
<linearGradient id="paint0_linear_322_405" x1="242" y1="15" x2="20.7686" y2="15" gradientUnits="userSpaceOnUse">
<stop stop-color="#B72346"/>
<stop offset="1" stop-color="#C5882D"/>
</linearGradient>
</defs>
</svg>
