<svg width="220" height="38" viewBox="0 0 220 38" fill="none" xmlns="http://www.w3.org/2000/svg">
<path d="M8.10973 25.5682V5.45455H13.195V25.5682H8.10973ZM0.595526 18.054V12.9688H20.7092V18.054H0.595526ZM39.2603 0.90909V30H33.1097V6.74716H32.9393L26.2773 10.9233V5.46875L33.479 0.90909H39.2603ZM57.3391 30.3977C55.8429 30.3883 54.3988 30.1373 53.0067 29.6449C51.6242 29.1525 50.3836 28.3523 49.2852 27.2443C48.1867 26.1364 47.3155 24.6686 46.6715 22.8409C46.0371 21.0133 45.7198 18.7689 45.7198 16.108C45.7293 13.6648 46.0086 11.482 46.5579 9.55966C47.1166 7.62784 47.9121 5.98958 48.9442 4.64489C49.9859 3.30019 51.2312 2.27746 52.68 1.5767C54.1289 0.866476 55.753 0.511363 57.5522 0.511363C59.4935 0.511363 61.2075 0.890151 62.6942 1.64773C64.181 2.39583 65.3742 3.41383 66.2738 4.7017C67.1829 5.98958 67.7321 7.43371 67.9215 9.03409H61.8562C61.6194 8.02083 61.1223 7.22538 60.3647 6.64773C59.6071 6.07008 58.6696 5.78125 57.5522 5.78125C55.6583 5.78125 54.2189 6.60511 53.234 8.25284C52.2586 9.90057 51.7615 12.1402 51.7425 14.9716H51.9414C52.377 14.1098 52.9641 13.3759 53.7028 12.7699C54.4509 12.1544 55.2984 11.6856 56.2454 11.3636C57.2018 11.0322 58.2103 10.8665 59.271 10.8665C60.9944 10.8665 62.5285 11.2737 63.8732 12.0881C65.2179 12.893 66.2785 14.0009 67.055 15.4119C67.8316 16.8229 68.2198 18.4375 68.2198 20.2557C68.2198 22.2254 67.7605 23.9773 66.842 25.5114C65.9329 27.0455 64.6592 28.2481 63.021 29.1193C61.3922 29.9811 59.4982 30.4072 57.3391 30.3977ZM57.3107 25.5682C58.2577 25.5682 59.1052 25.3409 59.8533 24.8864C60.6014 24.4318 61.1886 23.8163 61.6147 23.0398C62.0408 22.2633 62.2539 21.392 62.2539 20.4261C62.2539 19.4602 62.0408 18.5937 61.6147 17.8267C61.198 17.0597 60.6204 16.4489 59.8817 15.9943C59.1431 15.5398 58.3003 15.3125 57.3533 15.3125C56.6431 15.3125 55.985 15.4451 55.3789 15.7102C54.7823 15.9754 54.2567 16.3447 53.8022 16.8182C53.3571 17.2917 53.0067 17.8409 52.7511 18.4659C52.4954 19.0814 52.3675 19.7396 52.3675 20.4403C52.3675 21.3778 52.5806 22.2348 53.0067 23.0114C53.4424 23.7879 54.0295 24.4081 54.7681 24.8722C55.5162 25.3362 56.3638 25.5682 57.3107 25.5682ZM78.0032 26.0227L77.8469 27.5852C77.7238 28.8352 77.4871 30.0805 77.1367 31.321C76.7958 32.571 76.436 33.7027 76.0572 34.7159C75.6879 35.7292 75.3896 36.5246 75.1623 37.1023H71.2418C71.3839 36.5436 71.578 35.7623 71.8242 34.7585C72.0704 33.7642 72.3024 32.6468 72.5202 31.4062C72.738 30.1657 72.8754 28.9015 72.9322 27.6136L73.0032 26.0227H78.0032ZM83.479 30V25.5682L93.8342 15.9801C94.7148 15.1278 95.4535 14.3608 96.0501 13.679C96.6561 12.9972 97.1154 12.3295 97.4279 11.6761C97.7404 11.0133 97.8967 10.2983 97.8967 9.53125C97.8967 8.67898 97.7025 7.94508 97.3143 7.32955C96.926 6.70455 96.3957 6.22633 95.7234 5.89489C95.051 5.55398 94.2887 5.38352 93.4364 5.38352C92.5463 5.38352 91.7698 5.56345 91.1069 5.9233C90.444 6.28314 89.9326 6.79924 89.5728 7.47159C89.2129 8.14394 89.033 8.94413 89.033 9.87216H83.195C83.195 7.96875 83.6258 6.31629 84.4876 4.91477C85.3493 3.51326 86.5567 2.42898 88.1097 1.66193C89.6628 0.894885 91.4525 0.511363 93.479 0.511363C95.5624 0.511363 97.3758 0.880681 98.9194 1.61932C100.472 2.34848 101.68 3.36174 102.542 4.65909C103.403 5.95644 103.834 7.44318 103.834 9.11932C103.834 10.2178 103.616 11.3021 103.181 12.3722C102.755 13.4422 101.992 14.6307 100.894 15.9375C99.7953 17.2348 98.247 18.7926 96.2489 20.6108L92.0018 24.7727V24.9716H104.218V30H83.479ZM119.299 30.3977C117.292 30.3977 115.502 30.0284 113.93 29.2898C112.368 28.5511 111.127 27.5331 110.208 26.2358C109.29 24.9384 108.812 23.4517 108.774 21.7756H114.74C114.806 22.9025 115.279 23.8163 116.16 24.517C117.041 25.2178 118.087 25.5682 119.299 25.5682C120.265 25.5682 121.118 25.3551 121.856 24.929C122.604 24.4934 123.187 23.892 123.603 23.125C124.029 22.3485 124.243 21.4583 124.243 20.4545C124.243 19.4318 124.025 18.5322 123.589 17.7557C123.163 16.9792 122.571 16.3731 121.814 15.9375C121.056 15.5019 120.19 15.2794 119.214 15.2699C118.362 15.2699 117.533 15.4451 116.728 15.7955C115.933 16.1458 115.313 16.6241 114.868 17.2301L109.399 16.25L110.777 0.90909H128.561V5.9375H115.848L115.095 13.2244H115.265C115.777 12.5047 116.548 11.9081 117.581 11.4347C118.613 10.9612 119.768 10.7244 121.047 10.7244C122.798 10.7244 124.361 11.1364 125.734 11.9602C127.107 12.7841 128.191 13.9157 128.987 15.3551C129.782 16.785 130.175 18.4328 130.166 20.2983C130.175 22.2585 129.721 24.0009 128.802 25.5256C127.893 27.0407 126.619 28.2339 124.981 29.1051C123.352 29.9669 121.458 30.3977 119.299 30.3977ZM145.62 30.3977C144.124 30.3883 142.68 30.1373 141.288 29.6449C139.905 29.1525 138.665 28.3523 137.566 27.2443C136.468 26.1364 135.597 24.6686 134.953 22.8409C134.318 21.0133 134.001 18.7689 134.001 16.108C134.011 13.6648 134.29 11.482 134.839 9.55966C135.398 7.62784 136.193 5.98958 137.225 4.64489C138.267 3.30019 139.512 2.27746 140.961 1.5767C142.41 0.866476 144.034 0.511363 145.833 0.511363C147.775 0.511363 149.489 0.890151 150.975 1.64773C152.462 2.39583 153.655 3.41383 154.555 4.7017C155.464 5.98958 156.013 7.43371 156.203 9.03409H150.137C149.901 8.02083 149.404 7.22538 148.646 6.64773C147.888 6.07008 146.951 5.78125 145.833 5.78125C143.94 5.78125 142.5 6.60511 141.515 8.25284C140.54 9.90057 140.043 12.1402 140.024 14.9716H140.223C140.658 14.1098 141.245 13.3759 141.984 12.7699C142.732 12.1544 143.58 11.6856 144.527 11.3636C145.483 11.0322 146.492 10.8665 147.552 10.8665C149.276 10.8665 150.81 11.2737 152.154 12.0881C153.499 12.893 154.56 14.0009 155.336 15.4119C156.113 16.8229 156.501 18.4375 156.501 20.2557C156.501 22.2254 156.042 23.9773 155.123 25.5114C154.214 27.0455 152.94 28.2481 151.302 29.1193C149.673 29.9811 147.779 30.4072 145.62 30.3977ZM145.592 25.5682C146.539 25.5682 147.386 25.3409 148.135 24.8864C148.883 24.4318 149.47 23.8163 149.896 23.0398C150.322 22.2633 150.535 21.392 150.535 20.4261C150.535 19.4602 150.322 18.5937 149.896 17.8267C149.479 17.0597 148.902 16.4489 148.163 15.9943C147.424 15.5398 146.582 15.3125 145.635 15.3125C144.924 15.3125 144.266 15.4451 143.66 15.7102C143.064 15.9754 142.538 16.3447 142.083 16.8182C141.638 17.2917 141.288 17.8409 141.032 18.4659C140.777 19.0814 140.649 19.7396 140.649 20.4403C140.649 21.3778 140.862 22.2348 141.288 23.0114C141.724 23.7879 142.311 24.4081 143.049 24.8722C143.797 25.3362 144.645 25.5682 145.592 25.5682ZM163.245 30.3693C162.307 30.3693 161.502 30.0379 160.83 29.375C160.167 28.7027 159.836 27.8977 159.836 26.9602C159.836 26.0322 160.167 25.2367 160.83 24.5739C161.502 23.911 162.307 23.5795 163.245 23.5795C164.154 23.5795 164.949 23.911 165.631 24.5739C166.313 25.2367 166.654 26.0322 166.654 26.9602C166.654 27.5852 166.493 28.1581 166.171 28.679C165.858 29.1903 165.446 29.6023 164.935 29.9148C164.424 30.2178 163.86 30.3693 163.245 30.3693ZM171.565 30V25.5682L181.92 15.9801C182.801 15.1278 183.539 14.3608 184.136 13.679C184.742 12.9972 185.201 12.3295 185.514 11.6761C185.826 11.0133 185.983 10.2983 185.983 9.53125C185.983 8.67898 185.788 7.94508 185.4 7.32955C185.012 6.70455 184.482 6.22633 183.809 5.89489C183.137 5.55398 182.375 5.38352 181.522 5.38352C180.632 5.38352 179.856 5.56345 179.193 5.9233C178.53 6.28314 178.019 6.79924 177.659 7.47159C177.299 8.14394 177.119 8.94413 177.119 9.87216H171.281C171.281 7.96875 171.712 6.31629 172.574 4.91477C173.435 3.51326 174.643 2.42898 176.196 1.66193C177.749 0.894885 179.538 0.511363 181.565 0.511363C183.648 0.511363 185.462 0.880681 187.005 1.61932C188.558 2.34848 189.766 3.36174 190.627 4.65909C191.489 5.95644 191.92 7.44318 191.92 9.11932C191.92 10.2178 191.702 11.3021 191.267 12.3722C190.841 13.4422 190.078 14.6307 188.98 15.9375C187.881 17.2348 186.333 18.7926 184.335 20.6108L180.088 24.7727V24.9716H192.304V30H171.565ZM208.167 30.6392C205.723 30.6297 203.621 30.0284 201.86 28.8352C200.108 27.642 198.758 25.9138 197.811 23.6506C196.874 21.3873 196.41 18.6648 196.419 15.483C196.419 12.3106 196.888 9.60701 197.826 7.37216C198.773 5.13731 200.122 3.4375 201.874 2.27273C203.635 1.09848 205.733 0.511363 208.167 0.511363C210.6 0.511363 212.693 1.09848 214.445 2.27273C216.206 3.44697 217.56 5.15151 218.507 7.38636C219.454 9.61174 219.923 12.3106 219.914 15.483C219.914 18.6742 219.44 21.4015 218.493 23.6648C217.556 25.928 216.211 27.6562 214.459 28.8494C212.707 30.0426 210.61 30.6392 208.167 30.6392ZM208.167 25.5398C209.833 25.5398 211.164 24.7017 212.158 23.0256C213.152 21.3494 213.645 18.8352 213.635 15.483C213.635 13.2765 213.408 11.4394 212.953 9.97159C212.508 8.50379 211.874 7.40057 211.05 6.66193C210.236 5.9233 209.275 5.55398 208.167 5.55398C206.509 5.55398 205.184 6.38258 204.189 8.03977C203.195 9.69697 202.693 12.178 202.684 15.483C202.684 17.7178 202.906 19.5833 203.351 21.0795C203.806 22.5663 204.445 23.6837 205.269 24.4318C206.093 25.1705 207.059 25.5398 208.167 25.5398Z" fill="url(#paint0_linear_322_414)"/>
<defs>
<linearGradient id="paint0_linear_322_414" x1="222" y1="15" x2="18.8283" y2="15" gradientUnits="userSpaceOnUse">
<stop stop-color="#30AE35"/>
<stop offset="1" stop-color="#236D49"/>
</linearGradient>
</defs>
</svg>
