<svg width="214" height="38" viewBox="0 0 214 38" fill="none" xmlns="http://www.w3.org/2000/svg">
<path d="M8.25426 25.5682V5.45455H13.3395V25.5682H8.25426ZM0.740057 18.054V12.9688H20.8537V18.054H0.740057ZM39.4048 0.90909V30H33.2543V6.74716H33.0838L26.4219 10.9233V5.46875L33.6236 0.90909H39.4048ZM46.3189 30V25.5682L56.674 15.9801C57.5547 15.1278 58.2933 14.3608 58.8899 13.679C59.496 12.9972 59.9553 12.3295 60.2678 11.6761C60.5803 11.0133 60.7365 10.2983 60.7365 9.53125C60.7365 8.67898 60.5424 7.94508 60.1541 7.32955C59.7659 6.70455 59.2356 6.22633 58.5632 5.89489C57.8909 5.55398 57.1286 5.38352 56.2763 5.38352C55.3861 5.38352 54.6096 5.56345 53.9467 5.9233C53.2839 6.28314 52.7725 6.79924 52.4126 7.47159C52.0528 8.14394 51.8729 8.94413 51.8729 9.87216H46.0348C46.0348 7.96875 46.4657 6.31629 47.3274 4.91477C48.1892 3.51326 49.3965 2.42898 50.9496 1.66193C52.5026 0.894885 54.2924 0.511363 56.3189 0.511363C58.4022 0.511363 60.2157 0.880681 61.7592 1.61932C63.3123 2.34848 64.5197 3.36174 65.3814 4.65909C66.2431 5.95644 66.674 7.44318 66.674 9.11932C66.674 10.2178 66.4562 11.3021 66.0206 12.3722C65.5945 13.4422 64.8321 14.6307 63.7337 15.9375C62.6352 17.2348 61.0869 18.7926 59.0888 20.6108L54.8416 24.7727V24.9716H67.0575V30H46.3189ZM78.1477 26.0227L77.9915 27.5852C77.8684 28.8352 77.6316 30.0805 77.2812 31.321C76.9403 32.571 76.5805 33.7027 76.2017 34.7159C75.8324 35.7292 75.5341 36.5246 75.3068 37.1023H71.3864C71.5284 36.5436 71.7225 35.7623 71.9688 34.7585C72.215 33.7642 72.447 32.6468 72.6648 31.4062C72.8826 30.1657 73.0199 28.9015 73.0767 27.6136L73.1477 26.0227H78.1477ZM93.6165 30.3977C92.1203 30.3883 90.6761 30.1373 89.2841 29.6449C87.9015 29.1525 86.661 28.3523 85.5625 27.2443C84.464 26.1364 83.5928 24.6686 82.9489 22.8409C82.3144 21.0133 81.9972 18.7689 81.9972 16.108C82.0066 13.6648 82.286 11.482 82.8352 9.55966C83.3939 7.62784 84.1894 5.98958 85.2216 4.64489C86.2633 3.30019 87.5085 2.27746 88.9574 1.5767C90.4063 0.866476 92.0303 0.511363 93.8295 0.511363C95.7708 0.511363 97.4848 0.890151 98.9716 1.64773C100.458 2.39583 101.652 3.41383 102.551 4.7017C103.46 5.98958 104.009 7.43371 104.199 9.03409H98.1335C97.8968 8.02083 97.3996 7.22538 96.642 6.64773C95.8845 6.07008 94.947 5.78125 93.8295 5.78125C91.9356 5.78125 90.4962 6.60511 89.5114 8.25284C88.536 9.90057 88.0388 12.1402 88.0199 14.9716H88.2188C88.6544 14.1098 89.2415 13.3759 89.9801 12.7699C90.7282 12.1544 91.5758 11.6856 92.5227 11.3636C93.4792 11.0322 94.4877 10.8665 95.5483 10.8665C97.2718 10.8665 98.8059 11.2737 100.151 12.0881C101.495 12.893 102.556 14.0009 103.332 15.4119C104.109 16.8229 104.497 18.4375 104.497 20.2557C104.497 22.2254 104.038 23.9773 103.119 25.5114C102.21 27.0455 100.937 28.2481 99.2983 29.1193C97.6695 29.9811 95.7756 30.4072 93.6165 30.3977ZM93.5881 25.5682C94.535 25.5682 95.3826 25.3409 96.1307 24.8864C96.8788 24.4318 97.4659 23.8163 97.892 23.0398C98.3182 22.2633 98.5312 21.392 98.5312 20.4261C98.5312 19.4602 98.3182 18.5937 97.892 17.8267C97.4754 17.0597 96.8977 16.4489 96.1591 15.9943C95.4205 15.5398 94.5777 15.3125 93.6307 15.3125C92.9205 15.3125 92.2623 15.4451 91.6562 15.7102C91.0597 15.9754 90.5341 16.3447 90.0795 16.8182C89.6345 17.2917 89.2841 17.8409 89.0284 18.4659C88.7727 19.0814 88.6449 19.7396 88.6449 20.4403C88.6449 21.3778 88.858 22.2348 89.2841 23.0114C89.7197 23.7879 90.3068 24.4081 91.0455 24.8722C91.7936 25.3362 92.6411 25.5682 93.5881 25.5682ZM120.264 30.6392C117.821 30.6297 115.719 30.0284 113.957 28.8352C112.205 27.642 110.856 25.9138 109.909 23.6506C108.972 21.3873 108.508 18.6648 108.517 15.483C108.517 12.3106 108.986 9.60701 109.923 7.37216C110.87 5.13731 112.22 3.4375 113.972 2.27273C115.733 1.09848 117.83 0.511363 120.264 0.511363C122.698 0.511363 124.791 1.09848 126.543 2.27273C128.304 3.44697 129.658 5.15151 130.605 7.38636C131.552 9.61174 132.021 12.3106 132.011 15.483C132.011 18.6742 131.538 21.4015 130.591 23.6648C129.653 25.928 128.309 27.6562 126.557 28.8494C124.805 30.0426 122.707 30.6392 120.264 30.6392ZM120.264 25.5398C121.931 25.5398 123.261 24.7017 124.256 23.0256C125.25 21.3494 125.742 18.8352 125.733 15.483C125.733 13.2765 125.506 11.4394 125.051 9.97159C124.606 8.50379 123.972 7.40057 123.148 6.66193C122.333 5.9233 121.372 5.55398 120.264 5.55398C118.607 5.55398 117.281 6.38258 116.287 8.03977C115.293 9.69697 114.791 12.178 114.781 15.483C114.781 17.7178 115.004 19.5833 115.449 21.0795C115.903 22.5663 116.543 23.6837 117.366 24.4318C118.19 25.1705 119.156 25.5398 120.264 25.5398ZM147.803 30.6392C145.36 30.6297 143.258 30.0284 141.496 28.8352C139.745 27.642 138.395 25.9138 137.448 23.6506C136.511 21.3873 136.047 18.6648 136.056 15.483C136.056 12.3106 136.525 9.60701 137.462 7.37216C138.409 5.13731 139.759 3.4375 141.511 2.27273C143.272 1.09848 145.37 0.511363 147.803 0.511363C150.237 0.511363 152.33 1.09848 154.082 2.27273C155.843 3.44697 157.197 5.15151 158.144 7.38636C159.091 9.61174 159.56 12.3106 159.55 15.483C159.55 18.6742 159.077 21.4015 158.13 23.6648C157.192 25.928 155.848 27.6562 154.096 28.8494C152.344 30.0426 150.246 30.6392 147.803 30.6392ZM147.803 25.5398C149.47 25.5398 150.8 24.7017 151.795 23.0256C152.789 21.3494 153.281 18.8352 153.272 15.483C153.272 13.2765 153.045 11.4394 152.59 9.97159C152.145 8.50379 151.511 7.40057 150.687 6.66193C149.872 5.9233 148.911 5.55398 147.803 5.55398C146.146 5.55398 144.82 6.38258 143.826 8.03977C142.832 9.69697 142.33 12.178 142.32 15.483C142.32 17.7178 142.543 19.5833 142.988 21.0795C143.442 22.5663 144.082 23.6837 144.906 24.4318C145.729 25.1705 146.695 25.5398 147.803 25.5398ZM166.358 30.3693C165.42 30.3693 164.616 30.0379 163.943 29.375C163.28 28.7027 162.949 27.8977 162.949 26.9602C162.949 26.0322 163.28 25.2367 163.943 24.5739C164.616 23.911 165.42 23.5795 166.358 23.5795C167.267 23.5795 168.063 23.911 168.744 24.5739C169.426 25.2367 169.767 26.0322 169.767 26.9602C169.767 27.5852 169.606 28.1581 169.284 28.679C168.972 29.1903 168.56 29.6023 168.048 29.9148C167.537 30.2178 166.973 30.3693 166.358 30.3693ZM183.702 0.90909V30H177.551V6.74716H177.381L170.719 10.9233V5.46875L177.92 0.90909H183.702ZM202.022 30.6392C199.579 30.6297 197.477 30.0284 195.715 28.8352C193.963 27.642 192.614 25.9138 191.667 23.6506C190.729 21.3873 190.265 18.6648 190.275 15.483C190.275 12.3106 190.744 9.60701 191.681 7.37216C192.628 5.13731 193.978 3.4375 195.729 2.27273C197.491 1.09848 199.588 0.511363 202.022 0.511363C204.456 0.511363 206.549 1.09848 208.3 2.27273C210.062 3.44697 211.416 5.15151 212.363 7.38636C213.31 9.61174 213.779 12.3106 213.769 15.483C213.769 18.6742 213.296 21.4015 212.349 23.6648C211.411 25.928 210.067 27.6562 208.315 28.8494C206.563 30.0426 204.465 30.6392 202.022 30.6392ZM202.022 25.5398C203.689 25.5398 205.019 24.7017 206.013 23.0256C207.008 21.3494 207.5 18.8352 207.491 15.483C207.491 13.2765 207.263 11.4394 206.809 9.97159C206.364 8.50379 205.729 7.40057 204.906 6.66193C204.091 5.9233 203.13 5.55398 202.022 5.55398C200.365 5.55398 199.039 6.38258 198.045 8.03977C197.05 9.69697 196.549 12.178 196.539 15.483C196.539 17.7178 196.762 19.5833 197.207 21.0795C197.661 22.5663 198.3 23.6837 199.124 24.4318C199.948 25.1705 200.914 25.5398 202.022 25.5398Z" fill="url(#paint0_linear_322_423)"/>
<defs>
<linearGradient id="paint0_linear_322_423" x1="216" y1="15" x2="18.2463" y2="15" gradientUnits="userSpaceOnUse">
<stop stop-color="#EDB628"/>
<stop offset="1" stop-color="#705612"/>
</linearGradient>
</defs>
</svg>
