<svg width="97" height="97" viewBox="0 0 97 97" fill="none" xmlns="http://www.w3.org/2000/svg">
<g filter="url(#filter0_b_322_415)">
<rect x="1" y="1" width="95" height="95" rx="47.5" fill="white" fill-opacity="0.1"/>
<rect x="1" y="1" width="95" height="95" rx="47.5" stroke="white" stroke-opacity="0.12" stroke-width="2"/>
</g>
<g clip-path="url(#clip0_322_415)">
<path d="M33.2108 33.8798C31.8983 33.4418 31.1951 32.0264 31.6326 30.7126C32.0701 29.3988 33.4842 28.695 34.7967 29.1329L43.6248 32.0811C44.7029 30.2356 46.7108 29 48.9998 29C52.4529 29 55.2498 31.7996 55.2498 35.2561C55.2498 35.4907 55.2342 35.7175 55.2108 35.9443L64.7889 39.1427C66.1014 39.5806 66.8045 40.9961 66.367 42.3099C65.9295 43.6236 64.5154 44.3275 63.2029 43.8895L52.6248 40.3548C52.2733 40.6051 51.8983 40.8162 51.4998 40.9961V66.5366C51.4998 67.9208 50.3826 69.0391 48.9998 69.0391H33.9998C32.617 69.0391 31.4998 67.9208 31.4998 66.5366C31.4998 65.1525 32.617 64.0342 33.9998 64.0342H46.4998V40.9883C44.8592 40.2688 43.5936 38.8768 43.0467 37.1564L33.2108 33.8719V33.8798ZM39.6561 51.522L33.9998 41.8094L28.3436 51.522H39.6561ZM33.9998 59.0293C29.0858 59.0293 24.9998 56.3705 24.1561 52.8592C23.9529 51.999 24.2342 51.1153 24.6795 50.349L32.117 37.5865C32.5076 36.914 33.2264 36.5073 33.9998 36.5073C34.7733 36.5073 35.492 36.9218 35.8826 37.5865L43.3201 50.349C43.7654 51.1153 44.0467 51.999 43.8436 52.8592C42.9998 56.3705 38.9139 59.0293 33.9998 59.0293ZM63.9061 51.8191L58.2498 61.5317H69.5701L63.9061 51.8191ZM73.7498 62.869C72.9061 66.3802 68.8201 69.0391 63.9061 69.0391C58.992 69.0391 54.9061 66.3802 54.0623 62.869C53.8592 62.0088 54.1404 61.1251 54.5858 60.3587L62.0233 47.5963C62.4139 46.9237 63.1326 46.5171 63.9061 46.5171C64.6795 46.5171 65.3983 46.9316 65.7889 47.5963L73.2264 60.3587C73.6717 61.1251 73.9529 62.0088 73.7498 62.869Z" fill="white" fill-opacity="0.6"/>
</g>
<defs>
<filter id="filter0_b_322_415" x="-20" y="-20" width="137" height="137" filterUnits="userSpaceOnUse" color-interpolation-filters="sRGB">
<feFlood flood-opacity="0" result="BackgroundImageFix"/>
<feGaussianBlur in="BackgroundImageFix" stdDeviation="10"/>
<feComposite in2="SourceAlpha" operator="in" result="effect1_backgroundBlur_322_415"/>
<feBlend mode="normal" in="SourceGraphic" in2="effect1_backgroundBlur_322_415" result="shape"/>
</filter>
<clipPath id="clip0_322_415">
<rect width="50" height="40.0391" fill="white" transform="translate(24 29)"/>
</clipPath>
</defs>
</svg>
