<svg width="97" height="97" viewBox="0 0 97 97" fill="none" xmlns="http://www.w3.org/2000/svg">
<g filter="url(#filter0_b_322_424)">
<rect x="1" y="1" width="95" height="95" rx="47.5" fill="white" fill-opacity="0.1"/>
<rect x="1" y="1" width="95" height="95" rx="47.5" stroke="white" stroke-opacity="0.12" stroke-width="2"/>
</g>
<g clip-path="url(#clip0_322_424)">
<path d="M35.25 29C36.9076 29 38.4973 29.6585 39.6694 30.8306C40.8415 32.0027 41.5 33.5924 41.5 35.25C41.5 36.9076 40.8415 38.4973 39.6694 39.6694C38.4973 40.8415 36.9076 41.5 35.25 41.5C33.5924 41.5 32.0027 40.8415 30.8306 39.6694C29.6585 38.4973 29 36.9076 29 35.25C29 33.5924 29.6585 32.0027 30.8306 30.8306C32.0027 29.6585 33.5924 29 35.25 29ZM64 29C65.6576 29 67.2473 29.6585 68.4194 30.8306C69.5915 32.0027 70.25 33.5924 70.25 35.25C70.25 36.9076 69.5915 38.4973 68.4194 39.6694C67.2473 40.8415 65.6576 41.5 64 41.5C62.3424 41.5 60.7527 40.8415 59.5806 39.6694C58.4085 38.4973 57.75 36.9076 57.75 35.25C57.75 33.5924 58.4085 32.0027 59.5806 30.8306C60.7527 29.6585 62.3424 29 64 29ZM24 52.3359C24 47.7344 27.7344 44 32.3359 44H35.6719C36.9141 44 38.0938 44.2734 39.1562 44.7578C39.0547 45.3203 39.0078 45.9062 39.0078 46.5C39.0078 49.4844 40.3203 52.1641 42.3906 54C42.375 54 42.3594 54 42.3359 54H25.6641C24.75 54 24 53.25 24 52.3359ZM55.6641 54C55.6484 54 55.6328 54 55.6094 54C57.6875 52.1641 58.9922 49.4844 58.9922 46.5C58.9922 45.9062 58.9375 45.3281 58.8438 44.7578C59.9062 44.2656 61.0859 44 62.3281 44H65.6641C70.2656 44 74 47.7344 74 52.3359C74 53.2578 73.25 54 72.3359 54H55.6641ZM41.5 46.5C41.5 44.5109 42.2902 42.6032 43.6967 41.1967C45.1032 39.7902 47.0109 39 49 39C50.9891 39 52.8968 39.7902 54.3033 41.1967C55.7098 42.6032 56.5 44.5109 56.5 46.5C56.5 48.4891 55.7098 50.3968 54.3033 51.8033C52.8968 53.2098 50.9891 54 49 54C47.0109 54 45.1032 53.2098 43.6967 51.8033C42.2902 50.3968 41.5 48.4891 41.5 46.5ZM34 66.9141C34 61.1641 38.6641 56.5 44.4141 56.5H53.5859C59.3359 56.5 64 61.1641 64 66.9141C64 68.0625 63.0703 69 61.9141 69H36.0859C34.9375 69 34 68.0703 34 66.9141Z" fill="white" fill-opacity="0.5"/>
</g>
<defs>
<filter id="filter0_b_322_424" x="-20" y="-20" width="137" height="137" filterUnits="userSpaceOnUse" color-interpolation-filters="sRGB">
<feFlood flood-opacity="0" result="BackgroundImageFix"/>
<feGaussianBlur in="BackgroundImageFix" stdDeviation="10"/>
<feComposite in2="SourceAlpha" operator="in" result="effect1_backgroundBlur_322_424"/>
<feBlend mode="normal" in="SourceGraphic" in2="effect1_backgroundBlur_322_424" result="shape"/>
</filter>
<clipPath id="clip0_322_424">
<rect width="50" height="40" fill="white" transform="translate(24 29)"/>
</clipPath>
</defs>
</svg>
