<svg width="288" height="38" viewBox="0 0 288 38" fill="none" xmlns="http://www.w3.org/2000/svg">
<path d="M8.07457 25.5682V5.45455H13.1598V25.5682H8.07457ZM0.560369 18.054V12.9688H20.674V18.054H0.560369ZM39.2251 0.90909V30H33.0746V6.74716H32.9041L26.2422 10.9233V5.46875L33.4439 0.90909H39.2251ZM51.2102 26.0227L51.054 27.5852C50.9309 28.8352 50.6941 30.0805 50.3438 31.321C50.0028 32.571 49.643 33.7027 49.2642 34.7159C48.8949 35.7292 48.5966 36.5246 48.3693 37.1023H44.4489C44.5909 36.5436 44.785 35.7623 45.0312 34.7585C45.2775 33.7642 45.5095 32.6468 45.7273 31.4062C45.9451 30.1657 46.0824 28.9015 46.1392 27.6136L46.2102 26.0227H51.2102ZM66.679 30.3977C65.1828 30.3883 63.7386 30.1373 62.3466 29.6449C60.964 29.1525 59.7235 28.3523 58.625 27.2443C57.5265 26.1364 56.6553 24.6686 56.0114 22.8409C55.3769 21.0133 55.0597 18.7689 55.0597 16.108C55.0691 13.6648 55.3485 11.482 55.8977 9.55966C56.4564 7.62784 57.2519 5.98958 58.2841 4.64489C59.3258 3.30019 60.571 2.27746 62.0199 1.5767C63.4688 0.866476 65.0928 0.511363 66.892 0.511363C68.8333 0.511363 70.5473 0.890151 72.0341 1.64773C73.5208 2.39583 74.714 3.41383 75.6136 4.7017C76.5227 5.98958 77.072 7.43371 77.2614 9.03409H71.196C70.9593 8.02083 70.4621 7.22538 69.7045 6.64773C68.947 6.07008 68.0095 5.78125 66.892 5.78125C64.9981 5.78125 63.5587 6.60511 62.5739 8.25284C61.5985 9.90057 61.1013 12.1402 61.0824 14.9716H61.2812C61.7169 14.1098 62.304 13.3759 63.0426 12.7699C63.7907 12.1544 64.6383 11.6856 65.5852 11.3636C66.5417 11.0322 67.5502 10.8665 68.6108 10.8665C70.3343 10.8665 71.8684 11.2737 73.2131 12.0881C74.5578 12.893 75.6184 14.0009 76.3949 15.4119C77.1714 16.8229 77.5597 18.4375 77.5597 20.2557C77.5597 22.2254 77.1004 23.9773 76.1818 25.5114C75.2727 27.0455 73.9991 28.2481 72.3608 29.1193C70.732 29.9811 68.8381 30.4072 66.679 30.3977ZM66.6506 25.5682C67.5975 25.5682 68.4451 25.3409 69.1932 24.8864C69.9413 24.4318 70.5284 23.8163 70.9545 23.0398C71.3807 22.2633 71.5938 21.392 71.5938 20.4261C71.5938 19.4602 71.3807 18.5937 70.9545 17.8267C70.5379 17.0597 69.9602 16.4489 69.2216 15.9943C68.483 15.5398 67.6402 15.3125 66.6932 15.3125C65.983 15.3125 65.3248 15.4451 64.7188 15.7102C64.1222 15.9754 63.5966 16.3447 63.142 16.8182C62.697 17.2917 62.3466 17.8409 62.0909 18.4659C61.8352 19.0814 61.7074 19.7396 61.7074 20.4403C61.7074 21.3778 61.9205 22.2348 62.3466 23.0114C62.7822 23.7879 63.3693 24.4081 64.108 24.8722C64.8561 25.3362 65.7036 25.5682 66.6506 25.5682ZM93.3267 30.6392C90.8835 30.6297 88.7813 30.0284 87.0199 28.8352C85.268 27.642 83.9186 25.9138 82.9716 23.6506C82.0341 21.3873 81.5701 18.6648 81.5795 15.483C81.5795 12.3106 82.0483 9.60701 82.9858 7.37216C83.9328 5.13731 85.2822 3.4375 87.0341 2.27273C88.7955 1.09848 90.893 0.511363 93.3267 0.511363C95.7604 0.511363 97.8532 1.09848 99.6051 2.27273C101.366 3.44697 102.721 5.15151 103.668 7.38636C104.615 9.61174 105.083 12.3106 105.074 15.483C105.074 18.6742 104.6 21.4015 103.653 23.6648C102.716 25.928 101.371 27.6562 99.6193 28.8494C97.8674 30.0426 95.7699 30.6392 93.3267 30.6392ZM93.3267 25.5398C94.9934 25.5398 96.3239 24.7017 97.3182 23.0256C98.3125 21.3494 98.8049 18.8352 98.7955 15.483C98.7955 13.2765 98.5682 11.4394 98.1136 9.97159C97.6686 8.50379 97.0341 7.40057 96.2102 6.66193C95.3958 5.9233 94.4347 5.55398 93.3267 5.55398C91.6695 5.55398 90.3438 6.38258 89.3494 8.03977C88.3551 9.69697 87.8532 12.178 87.8438 15.483C87.8438 17.7178 88.0663 19.5833 88.5114 21.0795C88.9659 22.5663 89.6051 23.6837 90.429 24.4318C91.2528 25.1705 92.2188 25.5398 93.3267 25.5398ZM120.866 30.6392C118.423 30.6297 116.32 30.0284 114.559 28.8352C112.807 27.642 111.458 25.9138 110.511 23.6506C109.573 21.3873 109.109 18.6648 109.119 15.483C109.119 12.3106 109.587 9.60701 110.525 7.37216C111.472 5.13731 112.821 3.4375 114.573 2.27273C116.335 1.09848 118.432 0.511363 120.866 0.511363C123.299 0.511363 125.392 1.09848 127.144 2.27273C128.906 3.44697 130.26 5.15151 131.207 7.38636C132.154 9.61174 132.622 12.3106 132.613 15.483C132.613 18.6742 132.139 21.4015 131.192 23.6648C130.255 25.928 128.91 27.6562 127.158 28.8494C125.406 30.0426 123.309 30.6392 120.866 30.6392ZM120.866 25.5398C122.532 25.5398 123.863 24.7017 124.857 23.0256C125.852 21.3494 126.344 18.8352 126.335 15.483C126.335 13.2765 126.107 11.4394 125.653 9.97159C125.208 8.50379 124.573 7.40057 123.749 6.66193C122.935 5.9233 121.974 5.55398 120.866 5.55398C119.209 5.55398 117.883 6.38258 116.888 8.03977C115.894 9.69697 115.392 12.178 115.383 15.483C115.383 17.7178 115.605 19.5833 116.05 21.0795C116.505 22.5663 117.144 23.6837 117.968 24.4318C118.792 25.1705 119.758 25.5398 120.866 25.5398ZM142.46 26.0227L142.304 27.5852C142.181 28.8352 141.944 30.0805 141.594 31.321C141.253 32.571 140.893 33.7027 140.514 34.7159C140.145 35.7292 139.847 36.5246 139.619 37.1023H135.699C135.841 36.5436 136.035 35.7623 136.281 34.7585C136.527 33.7642 136.759 32.6468 136.977 31.4062C137.195 30.1657 137.332 28.9015 137.389 27.6136L137.46 26.0227H142.46ZM158.17 30.6392C155.727 30.6297 153.625 30.0284 151.864 28.8352C150.112 27.642 148.762 25.9138 147.815 23.6506C146.878 21.3873 146.414 18.6648 146.423 15.483C146.423 12.3106 146.892 9.60701 147.83 7.37216C148.777 5.13731 150.126 3.4375 151.878 2.27273C153.639 1.09848 155.737 0.511363 158.17 0.511363C160.604 0.511363 162.697 1.09848 164.449 2.27273C166.21 3.44697 167.564 5.15151 168.511 7.38636C169.458 9.61174 169.927 12.3106 169.918 15.483C169.918 18.6742 169.444 21.4015 168.497 23.6648C167.56 25.928 166.215 27.6562 164.463 28.8494C162.711 30.0426 160.614 30.6392 158.17 30.6392ZM158.17 25.5398C159.837 25.5398 161.168 24.7017 162.162 23.0256C163.156 21.3494 163.649 18.8352 163.639 15.483C163.639 13.2765 163.412 11.4394 162.957 9.97159C162.512 8.50379 161.878 7.40057 161.054 6.66193C160.24 5.9233 159.278 5.55398 158.17 5.55398C156.513 5.55398 155.188 6.38258 154.193 8.03977C153.199 9.69697 152.697 12.178 152.688 15.483C152.688 17.7178 152.91 19.5833 153.355 21.0795C153.81 22.5663 154.449 23.6837 155.273 24.4318C156.097 25.1705 157.062 25.5398 158.17 25.5398ZM185.71 30.6392C183.266 30.6297 181.164 30.0284 179.403 28.8352C177.651 27.642 176.301 25.9138 175.354 23.6506C174.417 21.3873 173.953 18.6648 173.962 15.483C173.962 12.3106 174.431 9.60701 175.369 7.37216C176.316 5.13731 177.665 3.4375 179.417 2.27273C181.178 1.09848 183.276 0.511363 185.71 0.511363C188.143 0.511363 190.236 1.09848 191.988 2.27273C193.749 3.44697 195.103 5.15151 196.05 7.38636C196.997 9.61174 197.466 12.3106 197.457 15.483C197.457 18.6742 196.983 21.4015 196.036 23.6648C195.099 25.928 193.754 27.6562 192.002 28.8494C190.25 30.0426 188.153 30.6392 185.71 30.6392ZM185.71 25.5398C187.376 25.5398 188.707 24.7017 189.701 23.0256C190.695 21.3494 191.188 18.8352 191.178 15.483C191.178 13.2765 190.951 11.4394 190.496 9.97159C190.051 8.50379 189.417 7.40057 188.593 6.66193C187.779 5.9233 186.817 5.55398 185.71 5.55398C184.052 5.55398 182.727 6.38258 181.732 8.03977C180.738 9.69697 180.236 12.178 180.227 15.483C180.227 17.7178 180.449 19.5833 180.894 21.0795C181.349 22.5663 181.988 23.6837 182.812 24.4318C183.636 25.1705 184.602 25.5398 185.71 25.5398ZM213.249 30.6392C210.805 30.6297 208.703 30.0284 206.942 28.8352C205.19 27.642 203.84 25.9138 202.893 23.6506C201.956 21.3873 201.492 18.6648 201.501 15.483C201.501 12.3106 201.97 9.60701 202.908 7.37216C203.855 5.13731 205.204 3.4375 206.956 2.27273C208.717 1.09848 210.815 0.511363 213.249 0.511363C215.682 0.511363 217.775 1.09848 219.527 2.27273C221.288 3.44697 222.643 5.15151 223.589 7.38636C224.536 9.61174 225.005 12.3106 224.996 15.483C224.996 18.6742 224.522 21.4015 223.575 23.6648C222.638 25.928 221.293 27.6562 219.541 28.8494C217.789 30.0426 215.692 30.6392 213.249 30.6392ZM213.249 25.5398C214.915 25.5398 216.246 24.7017 217.24 23.0256C218.234 21.3494 218.727 18.8352 218.717 15.483C218.717 13.2765 218.49 11.4394 218.036 9.97159C217.59 8.50379 216.956 7.40057 216.132 6.66193C215.318 5.9233 214.357 5.55398 213.249 5.55398C211.591 5.55398 210.266 6.38258 209.271 8.03977C208.277 9.69697 207.775 12.178 207.766 15.483C207.766 17.7178 207.988 19.5833 208.433 21.0795C208.888 22.5663 209.527 23.6837 210.351 24.4318C211.175 25.1705 212.141 25.5398 213.249 25.5398ZM231.803 30.3693C230.866 30.3693 230.061 30.0379 229.388 29.375C228.726 28.7027 228.394 27.8977 228.394 26.9602C228.394 26.0322 228.726 25.2367 229.388 24.5739C230.061 23.911 230.866 23.5795 231.803 23.5795C232.712 23.5795 233.508 23.911 234.19 24.5739C234.871 25.2367 235.212 26.0322 235.212 26.9602C235.212 27.5852 235.051 28.1581 234.729 28.679C234.417 29.1903 234.005 29.6023 233.494 29.9148C232.982 30.2178 232.419 30.3693 231.803 30.3693ZM249.939 30.3977C247.818 30.3977 245.929 30.0331 244.271 29.304C242.624 28.5653 241.321 27.5521 240.365 26.2642C239.418 24.9669 238.93 23.4706 238.902 21.7756H245.095C245.133 22.4858 245.365 23.1108 245.791 23.6506C246.227 24.1809 246.804 24.5928 247.524 24.8864C248.244 25.1799 249.054 25.3267 249.953 25.3267C250.891 25.3267 251.719 25.161 252.439 24.8295C253.159 24.4981 253.722 24.0388 254.129 23.4517C254.536 22.8646 254.74 22.1875 254.74 21.4205C254.74 20.6439 254.522 19.9574 254.087 19.3608C253.661 18.7547 253.045 18.2812 252.24 17.9403C251.445 17.5994 250.498 17.429 249.399 17.429H246.686V12.9119H249.399C250.327 12.9119 251.146 12.7509 251.857 12.429C252.576 12.107 253.135 11.6619 253.533 11.0938C253.93 10.5161 254.129 9.84375 254.129 9.0767C254.129 8.34754 253.954 7.70833 253.604 7.15909C253.263 6.60038 252.78 6.16477 252.155 5.85227C251.539 5.53977 250.82 5.38352 249.996 5.38352C249.162 5.38352 248.4 5.53504 247.709 5.83807C247.018 6.13163 246.464 6.55303 246.047 7.10227C245.63 7.65151 245.408 8.29545 245.379 9.03409H239.484C239.513 7.35795 239.991 5.88068 240.919 4.60227C241.847 3.32386 243.097 2.32481 244.669 1.60511C246.25 0.875946 248.036 0.511363 250.024 0.511363C252.032 0.511363 253.788 0.875946 255.294 1.60511C256.8 2.33428 257.969 3.31913 258.803 4.55966C259.645 5.79072 260.062 7.1733 260.053 8.70739C260.062 10.3362 259.555 11.6951 258.533 12.7841C257.519 13.8731 256.198 14.5644 254.57 14.858V15.0852C256.71 15.3598 258.339 16.1032 259.456 17.3153C260.583 18.518 261.142 20.0237 261.132 21.8324C261.142 23.4896 260.663 24.9621 259.697 26.25C258.741 27.5379 257.42 28.5511 255.734 29.2898C254.049 30.0284 252.117 30.3977 249.939 30.3977ZM276.178 30.3977C274.171 30.3977 272.381 30.0284 270.809 29.2898C269.246 28.5511 268.006 27.5331 267.087 26.2358C266.169 24.9384 265.691 23.4517 265.653 21.7756H271.619C271.685 22.9025 272.158 23.8163 273.039 24.517C273.92 25.2178 274.966 25.5682 276.178 25.5682C277.144 25.5682 277.996 25.3551 278.735 24.929C279.483 24.4934 280.066 23.892 280.482 23.125C280.908 22.3485 281.121 21.4583 281.121 20.4545C281.121 19.4318 280.904 18.5322 280.468 17.7557C280.042 16.9792 279.45 16.3731 278.692 15.9375C277.935 15.5019 277.068 15.2794 276.093 15.2699C275.241 15.2699 274.412 15.4451 273.607 15.7955C272.812 16.1458 272.192 16.6241 271.746 17.2301L266.278 16.25L267.656 0.90909H285.44V5.9375H272.727L271.974 13.2244H272.144C272.656 12.5047 273.427 11.9081 274.46 11.4347C275.492 10.9612 276.647 10.7244 277.925 10.7244C279.677 10.7244 281.24 11.1364 282.613 11.9602C283.986 12.7841 285.07 13.9157 285.866 15.3551C286.661 16.785 287.054 18.4328 287.045 20.2983C287.054 22.2585 286.6 24.0009 285.681 25.5256C284.772 27.0407 283.498 28.2339 281.86 29.1051C280.231 29.9669 278.337 30.3977 276.178 30.3977Z" fill="url(#paint0_linear_322_432)"/>
<defs>
<linearGradient id="paint0_linear_322_432" x1="289" y1="15" x2="25.3283" y2="15" gradientUnits="userSpaceOnUse">
<stop stop-color="#4431BA"/>
<stop offset="1" stop-color="#979DD8"/>
</linearGradient>
</defs>
</svg>
