<svg width="1097" height="63" viewBox="0 0 1097 63" fill="none" xmlns="http://www.w3.org/2000/svg">
<path d="M33.3288 21.2614C33.1394 19.178 32.2966 17.5587 30.8004 16.4034C29.3232 15.2292 27.2114 14.642 24.4652 14.642C22.647 14.642 21.1319 14.8788 19.9197 15.3523C18.7076 15.8258 17.7985 16.4792 17.1925 17.3125C16.5864 18.1269 16.2739 19.0644 16.255 20.125C16.2171 20.9962 16.3875 21.7633 16.7663 22.4261C17.1641 23.089 17.7322 23.6761 18.4709 24.1875C19.2285 24.6799 20.1375 25.1155 21.1982 25.4943C22.2588 25.8731 23.4519 26.2045 24.7777 26.4886L29.7777 27.625C32.6565 28.25 35.1944 29.0833 37.3913 30.125C39.6072 31.1667 41.4633 32.4072 42.9595 33.8466C44.4747 35.286 45.6205 36.9432 46.397 38.8182C47.1735 40.6932 47.5713 42.7955 47.5902 45.125C47.5713 48.7992 46.6432 51.9527 44.8061 54.5852C42.969 57.2178 40.3269 59.2348 36.88 60.6364C33.4519 62.0379 29.3137 62.7386 24.4652 62.7386C19.5978 62.7386 15.3554 62.0095 11.7379 60.5511C8.1205 59.0928 5.308 56.8769 3.30043 53.9034C1.29285 50.9299 0.260653 47.1705 0.203835 42.625H13.6697C13.7834 44.5 14.2853 46.0625 15.1754 47.3125C16.0656 48.5625 17.2872 49.5095 18.8402 50.1534C20.4122 50.7973 22.2304 51.1193 24.2947 51.1193C26.1887 51.1193 27.7985 50.8636 29.1243 50.3523C30.469 49.8409 31.5012 49.1307 32.2209 48.2216C32.9406 47.3125 33.3099 46.2708 33.3288 45.0966C33.3099 43.9981 32.969 43.0606 32.3061 42.2841C31.6432 41.4886 30.6205 40.8068 29.2379 40.2386C27.8743 39.6515 26.1319 39.1117 24.0107 38.6193L17.9311 37.1989C12.8932 36.0436 8.92543 34.178 6.0277 31.6023C3.12997 29.0076 1.69058 25.5038 1.70952 21.0909C1.69058 17.4924 2.65649 14.339 4.60724 11.6307C6.558 8.92235 9.25687 6.81061 12.7038 5.29545C16.1508 3.7803 20.0807 3.02273 24.4936 3.02273C29.0012 3.02273 32.9122 3.78977 36.2266 5.32386C39.5599 6.83901 42.1451 8.9697 43.9822 11.7159C45.8194 14.4621 46.7569 17.6439 46.7947 21.2614H33.3288ZM62.8459 62L51.4822 18.3636H65.4311L71.3118 46.3182H71.6811L77.9879 18.3636H91.5959L98.0732 46.1193H98.4425L104.153 18.3636H118.102L106.71 62H91.8516L85.0334 36.5739H84.5504L77.7322 62H62.8459ZM123.677 62V18.3636H137.569V62H123.677ZM130.637 13.2784C128.686 13.2784 127.01 12.6345 125.609 11.3466C124.207 10.0398 123.506 8.4678 123.506 6.63068C123.506 4.8125 124.207 3.25947 125.609 1.97159C127.01 0.66477 128.686 0.0113602 130.637 0.0113602C132.607 0.0113602 134.283 0.66477 135.665 1.97159C137.067 3.25947 137.768 4.8125 137.768 6.63068C137.768 8.4678 137.067 10.0398 135.665 11.3466C134.283 12.6345 132.607 13.2784 130.637 13.2784ZM171.212 18.3636V28.5909H143.144V18.3636H171.212ZM148.996 62V16.1477C148.996 12.7765 149.631 9.98295 150.9 7.76705C152.169 5.5322 153.93 3.86553 156.184 2.76705C158.438 1.64962 161.042 1.09091 163.996 1.09091C165.928 1.09091 167.746 1.24242 169.451 1.54545C171.174 1.82955 172.453 2.08523 173.286 2.3125L171.07 12.483C170.559 12.3125 169.934 12.1705 169.195 12.0568C168.476 11.9432 167.794 11.8864 167.15 11.8864C165.521 11.8864 164.404 12.2462 163.798 12.9659C163.192 13.6856 162.888 14.6705 162.888 15.9205V62H148.996ZM202.526 18.3636V28.5909H174.998V18.3636H202.526ZM180.765 7.90909H194.657V48.2784C194.657 49.1307 194.79 49.822 195.055 50.3523C195.339 50.8636 195.746 51.233 196.276 51.4602C196.807 51.6686 197.441 51.7727 198.18 51.7727C198.71 51.7727 199.269 51.7254 199.856 51.6307C200.462 51.517 200.916 51.4223 201.219 51.3466L203.322 61.375C202.659 61.5644 201.721 61.8011 200.509 62.0852C199.316 62.3693 197.886 62.5492 196.219 62.625C192.962 62.7765 190.168 62.3977 187.839 61.4886C185.528 60.5606 183.757 59.1212 182.526 57.1705C181.314 55.2197 180.727 52.767 180.765 49.8125V7.90909ZM226.802 62V3.81818H251.063C255.419 3.81818 259.065 4.43371 262.001 5.66477C264.955 6.89583 267.171 8.61932 268.648 10.8352C270.145 13.0511 270.893 15.6174 270.893 18.5341C270.893 20.75 270.429 22.7292 269.501 24.4716C268.573 26.1951 267.294 27.625 265.665 28.7614C264.037 29.8977 262.152 30.6932 260.012 31.1477V31.7159C262.361 31.8295 264.529 32.464 266.518 33.6193C268.525 34.7746 270.135 36.3845 271.347 38.4489C272.559 40.4943 273.165 42.9186 273.165 45.7216C273.165 48.8466 272.37 51.6402 270.779 54.1023C269.188 56.5455 266.887 58.4773 263.876 59.8977C260.864 61.2992 257.209 62 252.91 62H226.802ZM240.864 50.6648H249.558C252.607 50.6648 254.851 50.0871 256.29 48.9318C257.749 47.7765 258.478 46.1667 258.478 44.1023C258.478 42.6061 258.128 41.3182 257.427 40.2386C256.726 39.1402 255.732 38.2973 254.444 37.7102C253.156 37.1042 251.612 36.8011 249.813 36.8011H240.864V50.6648ZM240.864 27.7386H248.648C250.183 27.7386 251.546 27.483 252.739 26.9716C253.933 26.4602 254.861 25.7216 255.523 24.7557C256.205 23.7898 256.546 22.625 256.546 21.2614C256.546 19.3106 255.855 17.7765 254.472 16.6591C253.09 15.5417 251.224 14.983 248.876 14.983H240.864V27.7386ZM293.819 3.81818V62H279.927V3.81818H293.819ZM323.031 62.8239C318.447 62.8239 314.508 61.8864 311.212 60.0114C307.936 58.1174 305.407 55.4848 303.627 52.1136C301.866 48.7235 300.985 44.7936 300.985 40.3239C300.985 35.8352 301.866 31.9053 303.627 28.5341C305.407 25.1439 307.936 22.5114 311.212 20.6364C314.508 18.7424 318.447 17.7955 323.031 17.7955C327.614 17.7955 331.544 18.7424 334.82 20.6364C338.116 22.5114 340.644 25.1439 342.406 28.5341C344.186 31.9053 345.076 35.8352 345.076 40.3239C345.076 44.7936 344.186 48.7235 342.406 52.1136C340.644 55.4848 338.116 58.1174 334.82 60.0114C331.544 61.8864 327.614 62.8239 323.031 62.8239ZM323.116 52.3409C324.782 52.3409 326.193 51.8295 327.349 50.8068C328.504 49.7841 329.385 48.3636 329.991 46.5455C330.616 44.7273 330.928 42.625 330.928 40.2386C330.928 37.8144 330.616 35.6932 329.991 33.875C329.385 32.0568 328.504 30.6364 327.349 29.6136C326.193 28.5909 324.782 28.0795 323.116 28.0795C321.392 28.0795 319.934 28.5909 318.741 29.6136C317.567 30.6364 316.667 32.0568 316.042 33.875C315.436 35.6932 315.133 37.8144 315.133 40.2386C315.133 42.625 315.436 44.7273 316.042 46.5455C316.667 48.3636 317.567 49.7841 318.741 50.8068C319.934 51.8295 321.392 52.3409 323.116 52.3409ZM372.562 62.8239C367.96 62.8239 364.011 61.8769 360.715 59.983C357.439 58.089 354.92 55.4564 353.158 52.0852C351.397 48.6951 350.516 44.7746 350.516 40.3239C350.516 35.8542 351.397 31.9337 353.158 28.5625C354.939 25.1723 357.467 22.5303 360.744 20.6364C364.039 18.7424 367.969 17.7955 372.533 17.7955C376.567 17.7955 380.081 18.5246 383.073 19.983C386.085 21.4413 388.433 23.5057 390.119 26.1761C391.823 28.8277 392.723 31.9432 392.817 35.5227H379.835C379.569 33.2879 378.812 31.536 377.562 30.267C376.331 28.9981 374.721 28.3636 372.732 28.3636C371.122 28.3636 369.711 28.8182 368.499 29.7273C367.287 30.6174 366.34 31.9432 365.658 33.7045C364.996 35.447 364.664 37.6061 364.664 40.1818C364.664 42.7576 364.996 44.9356 365.658 46.7159C366.34 48.4773 367.287 49.8125 368.499 50.7216C369.711 51.6117 371.122 52.0568 372.732 52.0568C374.02 52.0568 375.156 51.7822 376.141 51.233C377.145 50.6837 377.969 49.8788 378.613 48.8182C379.257 47.7386 379.664 46.4318 379.835 44.8977H392.817C392.685 48.4962 391.785 51.6402 390.119 54.3295C388.471 57.0189 386.151 59.1117 383.158 60.608C380.185 62.0852 376.653 62.8239 372.562 62.8239ZM412.455 50.5511L412.512 33.9886H414.444L426.717 18.3636H442.455L424.217 40.75H420.552L412.455 50.5511ZM399.927 62V3.81818H413.819V62H399.927ZM427.029 62L415.609 43.875L424.756 34.017L443.08 62H427.029ZM465.999 62.8239C461.397 62.8239 457.448 61.8769 454.153 59.983C450.876 58.089 448.357 55.4564 446.596 52.0852C444.835 48.6951 443.954 44.7746 443.954 40.3239C443.954 35.8542 444.835 31.9337 446.596 28.5625C448.376 25.1723 450.905 22.5303 454.181 20.6364C457.477 18.7424 461.406 17.7955 465.971 17.7955C470.005 17.7955 473.518 18.5246 476.511 19.983C479.522 21.4413 481.871 23.5057 483.556 26.1761C485.261 28.8277 486.16 31.9432 486.255 35.5227H473.272C473.007 33.2879 472.249 31.536 470.999 30.267C469.768 28.9981 468.158 28.3636 466.17 28.3636C464.56 28.3636 463.149 28.8182 461.937 29.7273C460.725 30.6174 459.778 31.9432 459.096 33.7045C458.433 35.447 458.102 37.6061 458.102 40.1818C458.102 42.7576 458.433 44.9356 459.096 46.7159C459.778 48.4773 460.725 49.8125 461.937 50.7216C463.149 51.6117 464.56 52.0568 466.17 52.0568C467.458 52.0568 468.594 51.7822 469.579 51.233C470.583 50.6837 471.406 49.8788 472.05 48.8182C472.694 47.7386 473.102 46.4318 473.272 44.8977H486.255C486.122 48.4962 485.223 51.6402 483.556 54.3295C481.908 57.0189 479.588 59.1117 476.596 60.608C473.622 62.0852 470.09 62.8239 465.999 62.8239ZM507.256 37.1136V62H493.364V3.81818H506.802V26.375H507.285C508.27 23.6856 509.879 21.5833 512.114 20.0682C514.368 18.553 517.124 17.7955 520.381 17.7955C523.45 17.7955 526.12 18.4773 528.393 19.8409C530.665 21.1856 532.427 23.089 533.677 25.5511C534.946 28.0133 535.571 30.892 535.552 34.1875V62H521.66V36.9148C521.679 34.4905 521.073 32.5966 519.842 31.233C518.611 29.8693 516.878 29.1875 514.643 29.1875C513.184 29.1875 511.897 29.5095 510.779 30.1534C509.681 30.7784 508.819 31.678 508.194 32.8523C507.588 34.0265 507.275 35.447 507.256 37.1136ZM556.525 62.7386C553.741 62.7386 551.269 62.2746 549.11 61.3466C546.97 60.3996 545.275 58.9792 544.025 57.0852C542.794 55.1723 542.178 52.7765 542.178 49.8977C542.178 47.4735 542.604 45.428 543.457 43.7614C544.309 42.0947 545.483 40.7405 546.979 39.6989C548.476 38.6572 550.199 37.8712 552.15 37.3409C554.101 36.7917 556.184 36.4223 558.4 36.233C560.881 36.0057 562.879 35.7689 564.394 35.5227C565.909 35.2576 567.008 34.8883 567.69 34.4148C568.39 33.9223 568.741 33.2311 568.741 32.3409V32.1989C568.741 30.7405 568.239 29.6136 567.235 28.8182C566.231 28.0227 564.877 27.625 563.173 27.625C561.335 27.625 559.858 28.0227 558.741 28.8182C557.623 29.6136 556.913 30.7121 556.61 32.1136L543.798 31.6591C544.176 29.0076 545.152 26.6402 546.724 24.5568C548.315 22.4545 550.493 20.8068 553.258 19.6136C556.042 18.4015 559.385 17.7955 563.286 17.7955C566.07 17.7955 568.637 18.1269 570.985 18.7898C573.334 19.4337 575.379 20.3807 577.121 21.6307C578.864 22.8617 580.209 24.3769 581.156 26.1761C582.121 27.9754 582.604 30.0303 582.604 32.3409V62H569.536V55.9205H569.195C568.419 57.3977 567.424 58.6477 566.212 59.6705C565.019 60.6932 563.608 61.4602 561.979 61.9716C560.37 62.483 558.551 62.7386 556.525 62.7386ZM560.815 53.6477C562.311 53.6477 563.656 53.3447 564.849 52.7386C566.061 52.1326 567.027 51.2992 567.746 50.2386C568.466 49.1591 568.826 47.9091 568.826 46.4886V42.3409C568.428 42.5492 567.945 42.7386 567.377 42.9091C566.828 43.0795 566.222 43.2405 565.559 43.392C564.896 43.5436 564.214 43.6761 563.513 43.7898C562.813 43.9034 562.14 44.0076 561.496 44.1023C560.19 44.3106 559.072 44.6326 558.144 45.0682C557.235 45.5038 556.534 46.072 556.042 46.7727C555.568 47.4545 555.332 48.2689 555.332 49.2159C555.332 50.6553 555.843 51.7538 556.866 52.5114C557.907 53.2689 559.224 53.6477 560.815 53.6477ZM591.099 62V18.3636H604.991V62H591.099ZM598.059 13.2784C596.108 13.2784 594.432 12.6345 593.031 11.3466C591.629 10.0398 590.928 8.4678 590.928 6.63068C590.928 4.8125 591.629 3.25947 593.031 1.97159C594.432 0.66477 596.108 0.0113602 598.059 0.0113602C600.029 0.0113602 601.705 0.66477 603.087 1.97159C604.489 3.25947 605.19 4.8125 605.19 6.63068C605.19 8.4678 604.489 10.0398 603.087 11.3466C601.705 12.6345 600.029 13.2784 598.059 13.2784ZM627.725 37.1136V62H613.833V18.3636H627.043V26.375H627.526C628.492 23.7045 630.14 21.6117 632.469 20.0966C634.799 18.5625 637.574 17.7955 640.793 17.7955C643.862 17.7955 646.522 18.4867 648.776 19.8693C651.049 21.233 652.81 23.1458 654.06 25.608C655.329 28.0511 655.954 30.911 655.935 34.1875V62H642.043V36.9148C642.062 34.4905 641.447 32.5966 640.197 31.233C638.966 29.8693 637.252 29.1875 635.055 29.1875C633.596 29.1875 632.308 29.5095 631.191 30.1534C630.093 30.7784 629.24 31.678 628.634 32.8523C628.047 34.0265 627.744 35.447 627.725 37.1136ZM681.724 62V3.81818H705.758C710.114 3.81818 713.873 4.60417 717.036 6.17614C720.218 7.72917 722.671 9.96401 724.394 12.8807C726.118 15.7784 726.979 19.2159 726.979 23.1932C726.979 27.2273 726.099 30.6553 724.337 33.4773C722.576 36.2803 720.076 38.4205 716.837 39.8977C713.599 41.3561 709.763 42.0852 705.332 42.0852H690.133V31.0057H702.718C704.839 31.0057 706.61 30.7311 708.031 30.1818C709.47 29.6136 710.559 28.7614 711.298 27.625C712.036 26.4697 712.406 24.9924 712.406 23.1932C712.406 21.3939 712.036 19.9072 711.298 18.733C710.559 17.5398 709.47 16.6496 708.031 16.0625C706.591 15.4564 704.82 15.1534 702.718 15.1534H695.786V62H681.724ZM714.479 35.4091L728.968 62H713.627L699.423 35.4091H714.479ZM754.231 62.8239C749.666 62.8239 745.727 61.9242 742.413 60.125C739.117 58.3068 736.579 55.7216 734.799 52.3693C733.038 48.9981 732.157 44.9924 732.157 40.3523C732.157 35.8447 733.047 31.9053 734.827 28.5341C736.608 25.1439 739.117 22.5114 742.356 20.6364C745.594 18.7424 749.411 17.7955 753.805 17.7955C756.911 17.7955 759.752 18.2784 762.327 19.2443C764.903 20.2102 767.129 21.6402 769.004 23.5341C770.879 25.428 772.337 27.767 773.379 30.5511C774.42 33.3163 774.941 36.4886 774.941 40.0682V43.5341H737.015V35.4659H762.015C761.996 33.9886 761.646 32.6723 760.964 31.517C760.282 30.3617 759.344 29.4621 758.151 28.8182C756.977 28.1553 755.623 27.8239 754.089 27.8239C752.536 27.8239 751.144 28.1742 749.913 28.875C748.682 29.5568 747.706 30.4943 746.987 31.6875C746.267 32.8617 745.888 34.197 745.85 35.6932V43.9034C745.85 45.6837 746.201 47.2462 746.901 48.5909C747.602 49.9167 748.596 50.9489 749.884 51.6875C751.172 52.4261 752.706 52.7955 754.487 52.7955C755.718 52.7955 756.835 52.625 757.839 52.2841C758.843 51.9432 759.704 51.4413 760.424 50.7784C761.144 50.1155 761.683 49.3011 762.043 48.3352L774.799 48.7045C774.269 51.5644 773.104 54.0549 771.305 56.1761C769.524 58.2784 767.185 59.9167 764.288 61.0909C761.39 62.2462 758.038 62.8239 754.231 62.8239ZM823.194 18.3636L808.222 62H792.313L777.37 18.3636H792.001L800.04 48.4205H800.495L808.563 18.3636H823.194ZM847.484 62.8239C842.9 62.8239 838.961 61.8864 835.665 60.0114C832.389 58.1174 829.861 55.4848 828.08 52.1136C826.319 48.7235 825.438 44.7936 825.438 40.3239C825.438 35.8352 826.319 31.9053 828.08 28.5341C829.861 25.1439 832.389 22.5114 835.665 20.6364C838.961 18.7424 842.9 17.7955 847.484 17.7955C852.067 17.7955 855.997 18.7424 859.273 20.6364C862.569 22.5114 865.097 25.1439 866.859 28.5341C868.639 31.9053 869.529 35.8352 869.529 40.3239C869.529 44.7936 868.639 48.7235 866.859 52.1136C865.097 55.4848 862.569 58.1174 859.273 60.0114C855.997 61.8864 852.067 62.8239 847.484 62.8239ZM847.569 52.3409C849.236 52.3409 850.647 51.8295 851.802 50.8068C852.957 49.7841 853.838 48.3636 854.444 46.5455C855.069 44.7273 855.381 42.625 855.381 40.2386C855.381 37.8144 855.069 35.6932 854.444 33.875C853.838 32.0568 852.957 30.6364 851.802 29.6136C850.647 28.5909 849.236 28.0795 847.569 28.0795C845.845 28.0795 844.387 28.5909 843.194 29.6136C842.02 30.6364 841.12 32.0568 840.495 33.875C839.889 35.6932 839.586 37.8144 839.586 40.2386C839.586 42.625 839.889 44.7273 840.495 46.5455C841.12 48.3636 842.02 49.7841 843.194 50.8068C844.387 51.8295 845.845 52.3409 847.569 52.3409ZM890.538 3.81818V62H876.646V3.81818H890.538ZM927.533 43.1648V18.3636H941.397V62H928.158V53.875H927.704C926.738 56.5455 925.09 58.6667 922.761 60.2386C920.45 61.7917 917.656 62.5682 914.38 62.5682C911.406 62.5682 908.793 61.8864 906.539 60.5227C904.285 59.1591 902.533 57.2557 901.283 54.8125C900.033 52.3504 899.399 49.4716 899.38 46.1761V18.3636H913.272V43.4489C913.291 45.8163 913.916 47.6818 915.147 49.0455C916.378 50.4091 918.054 51.0909 920.175 51.0909C921.558 51.0909 922.799 50.7879 923.897 50.1818C925.014 49.5568 925.895 48.6572 926.539 47.483C927.202 46.2898 927.533 44.8504 927.533 43.1648ZM974.87 18.3636V28.5909H947.342V18.3636H974.87ZM953.109 7.90909H967.001V48.2784C967.001 49.1307 967.133 49.822 967.398 50.3523C967.683 50.8636 968.09 51.233 968.62 51.4602C969.15 51.6686 969.785 51.7727 970.523 51.7727C971.054 51.7727 971.612 51.7254 972.2 51.6307C972.806 51.517 973.26 51.4223 973.563 51.3466L975.665 61.375C975.003 61.5644 974.065 61.8011 972.853 62.0852C971.66 62.3693 970.23 62.5492 968.563 62.625C965.306 62.7765 962.512 62.3977 960.183 61.4886C957.872 60.5606 956.101 59.1212 954.87 57.1705C953.658 55.2197 953.071 52.767 953.109 49.8125V7.90909ZM981.958 62V18.3636H995.85V62H981.958ZM988.918 13.2784C986.968 13.2784 985.291 12.6345 983.89 11.3466C982.488 10.0398 981.788 8.4678 981.788 6.63068C981.788 4.8125 982.488 3.25947 983.89 1.97159C985.291 0.66477 986.968 0.0113602 988.918 0.0113602C990.888 0.0113602 992.564 0.66477 993.947 1.97159C995.348 3.25947 996.049 4.8125 996.049 6.63068C996.049 8.4678 995.348 10.0398 993.947 11.3466C992.564 12.6345 990.888 13.2784 988.918 13.2784ZM1025.06 62.8239C1020.48 62.8239 1016.54 61.8864 1013.24 60.0114C1009.97 58.1174 1007.44 55.4848 1005.66 52.1136C1003.9 48.7235 1003.02 44.7936 1003.02 40.3239C1003.02 35.8352 1003.9 31.9053 1005.66 28.5341C1007.44 25.1439 1009.97 22.5114 1013.24 20.6364C1016.54 18.7424 1020.48 17.7955 1025.06 17.7955C1029.65 17.7955 1033.58 18.7424 1036.85 20.6364C1040.15 22.5114 1042.68 25.1439 1044.44 28.5341C1046.22 31.9053 1047.11 35.8352 1047.11 40.3239C1047.11 44.7936 1046.22 48.7235 1044.44 52.1136C1042.68 55.4848 1040.15 58.1174 1036.85 60.0114C1033.58 61.8864 1029.65 62.8239 1025.06 62.8239ZM1025.15 52.3409C1026.81 52.3409 1028.22 51.8295 1029.38 50.8068C1030.54 49.7841 1031.42 48.3636 1032.02 46.5455C1032.65 44.7273 1032.96 42.625 1032.96 40.2386C1032.96 37.8144 1032.65 35.6932 1032.02 33.875C1031.42 32.0568 1030.54 30.6364 1029.38 29.6136C1028.22 28.5909 1026.81 28.0795 1025.15 28.0795C1023.42 28.0795 1021.97 28.5909 1020.77 29.6136C1019.6 30.6364 1018.7 32.0568 1018.07 33.875C1017.47 35.6932 1017.16 37.8144 1017.16 40.2386C1017.16 42.625 1017.47 44.7273 1018.07 46.5455C1018.7 48.3636 1019.6 49.7841 1020.77 50.8068C1021.97 51.8295 1023.42 52.3409 1025.15 52.3409ZM1068.12 37.1136V62H1054.22V18.3636H1067.43V26.375H1067.92C1068.88 23.7045 1070.53 21.6117 1072.86 20.0966C1075.19 18.5625 1077.96 17.7955 1081.18 17.7955C1084.25 17.7955 1086.91 18.4867 1089.17 19.8693C1091.44 21.233 1093.2 23.1458 1094.45 25.608C1095.72 28.0511 1096.34 30.911 1096.33 34.1875V62H1082.43V36.9148C1082.45 34.4905 1081.84 32.5966 1080.59 31.233C1079.36 29.8693 1077.64 29.1875 1075.45 29.1875C1073.99 29.1875 1072.7 29.5095 1071.58 30.1534C1070.48 30.7784 1069.63 31.678 1069.02 32.8523C1068.44 34.0265 1068.13 35.447 1068.12 37.1136Z" fill="url(#paint0_linear_310_660)"/>
<defs>
<linearGradient id="paint0_linear_310_660" x1="1250.35" y1="31.9424" x2="-184.61" y2="31.9426" gradientUnits="userSpaceOnUse">
<stop stop-color="#FF3C6A"/>
<stop offset="0.520027" stop-color="#FFAF36"/>
<stop offset="1" stop-color="#5200FF"/>
</linearGradient>
</defs>
</svg>
